<svg width="100" height="100" viewBox="0 0 100 100" fill="none" xmlns="http://www.w3.org/2000/svg">
<g clip-path="url(#clip0_1_2)">
<rect width="100" height="100" rx="14" fill="white"/>
<g filter="url(#filter0_d_1_2)">
<mask id="path-2-outside-1_1_2" maskUnits="userSpaceOnUse" x="4" y="20" width="92" height="59" fill="black">
<rect fill="white" x="4" y="20" width="92" height="59"/>
<path d="M31.575 75.97C31.3416 75.97 31.225 75.7367 31.225 75.27C31.225 73.73 32.5316 69.81 35.145 63.51C35.9383 61.69 36.7316 59.87 37.525 58.05C38.3183 56.23 39.0883 54.41 39.835 52.59L43.055 43.14C43.5683 41.5533 43.965 40.2 44.245 39.08C44.5716 37.9133 44.735 36.9567 44.735 36.21C44.735 32.9433 43.8016 30.4933 41.935 28.86C40.0683 27.18 37.595 26.34 34.515 26.34C31.6216 26.34 28.7516 26.9933 25.905 28.3C23.105 29.56 20.5383 31.2867 18.205 33.48C15.9183 35.6733 14.075 38.1233 12.675 40.83C10.6683 44.6567 9.66496 48.1567 9.66496 51.33C9.66496 53.5233 10.2016 55.5067 11.275 57.28C12.3483 59.0533 13.7483 60.2667 15.475 60.92C16.6883 61.34 17.8783 61.55 19.045 61.55C20.6783 61.55 22.195 61.2 23.595 60.5C24.995 59.7533 26.115 58.7267 26.955 57.42C27.8416 56.1133 28.285 54.6433 28.285 53.01C28.285 52.8233 28.285 52.6367 28.285 52.45C28.285 52.2167 28.2616 52.0067 28.215 51.82C28.0283 51.26 28.1683 50.98 28.635 50.98C29.1483 50.98 29.4283 51.3533 29.475 52.1C29.5216 52.2867 29.545 52.4733 29.545 52.66C29.5916 52.8467 29.615 53.0567 29.615 53.29C29.615 54.97 29.055 56.5333 27.935 57.98C26.815 59.4267 25.3683 60.6167 23.595 61.55C21.8683 62.4367 20.0716 62.88 18.205 62.88C16.2916 62.88 14.4483 62.4133 12.675 61.48C8.89496 59.4267 7.00496 55.8567 7.00496 50.77C7.00496 47.13 7.98496 43.6067 9.94496 40.2C11.7183 37.12 14.0283 34.4367 16.875 32.15C19.7216 29.8633 22.8483 28.09 26.255 26.83C29.6616 25.5233 33.045 24.87 36.405 24.87C38.7383 24.87 40.8383 25.2433 42.705 25.99C44.5716 26.69 46.0416 27.7867 47.115 29.28C48.235 30.7267 48.795 32.5933 48.795 34.88C48.795 39.22 46.835 45.73 42.915 54.41C38.435 64.2567 36.195 69.7867 36.195 71C36.195 71.3267 36.3116 71.4433 36.545 71.35C37.7583 70.5567 43.2416 64.3033 52.995 52.59C57.9883 46.6167 62.2116 41.7867 65.665 38.1C69.165 34.3667 71.9183 31.7767 73.925 30.33C75.6983 28.9767 77.2383 27.88 78.545 27.04C79.8516 26.1533 80.9016 25.4767 81.695 25.01C84.5883 23.4233 87.2483 22.63 89.675 22.63C90.7483 22.63 91.565 22.7467 92.125 22.98C92.7316 23.1667 93.035 23.7267 93.035 24.66C93.035 25.2667 92.825 25.57 92.405 25.57C92.265 25.57 91.9383 25.4767 91.425 25.29C90.9116 25.0567 90.3983 24.94 89.885 24.94C87.4116 24.94 84.8216 25.6633 82.115 27.11C76.7016 30.0033 70.495 35.1833 63.495 42.65C61.4883 44.7967 59.1316 47.4567 56.425 50.63C53.765 53.8033 50.755 57.5133 47.395 61.76C42.075 68.48 38.8783 72.1433 37.805 72.75C35.7983 73.9167 34.2816 74.7333 33.255 75.2C32.275 75.7133 31.715 75.97 31.575 75.97Z"/>
</mask>
<path d="M31.575 75.97C31.3416 75.97 31.225 75.7367 31.225 75.27C31.225 73.73 32.5316 69.81 35.145 63.51C35.9383 61.69 36.7316 59.87 37.525 58.05C38.3183 56.23 39.0883 54.41 39.835 52.59L43.055 43.14C43.5683 41.5533 43.965 40.2 44.245 39.08C44.5716 37.9133 44.735 36.9567 44.735 36.21C44.735 32.9433 43.8016 30.4933 41.935 28.86C40.0683 27.18 37.595 26.34 34.515 26.34C31.6216 26.34 28.7516 26.9933 25.905 28.3C23.105 29.56 20.5383 31.2867 18.205 33.48C15.9183 35.6733 14.075 38.1233 12.675 40.83C10.6683 44.6567 9.66496 48.1567 9.66496 51.33C9.66496 53.5233 10.2016 55.5067 11.275 57.28C12.3483 59.0533 13.7483 60.2667 15.475 60.92C16.6883 61.34 17.8783 61.55 19.045 61.55C20.6783 61.55 22.195 61.2 23.595 60.5C24.995 59.7533 26.115 58.7267 26.955 57.42C27.8416 56.1133 28.285 54.6433 28.285 53.01C28.285 52.8233 28.285 52.6367 28.285 52.45C28.285 52.2167 28.2616 52.0067 28.215 51.82C28.0283 51.26 28.1683 50.98 28.635 50.98C29.1483 50.98 29.4283 51.3533 29.475 52.1C29.5216 52.2867 29.545 52.4733 29.545 52.66C29.5916 52.8467 29.615 53.0567 29.615 53.29C29.615 54.97 29.055 56.5333 27.935 57.98C26.815 59.4267 25.3683 60.6167 23.595 61.55C21.8683 62.4367 20.0716 62.88 18.205 62.88C16.2916 62.88 14.4483 62.4133 12.675 61.48C8.89496 59.4267 7.00496 55.8567 7.00496 50.77C7.00496 47.13 7.98496 43.6067 9.94496 40.2C11.7183 37.12 14.0283 34.4367 16.875 32.15C19.7216 29.8633 22.8483 28.09 26.255 26.83C29.6616 25.5233 33.045 24.87 36.405 24.87C38.7383 24.87 40.8383 25.2433 42.705 25.99C44.5716 26.69 46.0416 27.7867 47.115 29.28C48.235 30.7267 48.795 32.5933 48.795 34.88C48.795 39.22 46.835 45.73 42.915 54.41C38.435 64.2567 36.195 69.7867 36.195 71C36.195 71.3267 36.3116 71.4433 36.545 71.35C37.7583 70.5567 43.2416 64.3033 52.995 52.59C57.9883 46.6167 62.2116 41.7867 65.665 38.1C69.165 34.3667 71.9183 31.7767 73.925 30.33C75.6983 28.9767 77.2383 27.88 78.545 27.04C79.8516 26.1533 80.9016 25.4767 81.695 25.01C84.5883 23.4233 87.2483 22.63 89.675 22.63C90.7483 22.63 91.565 22.7467 92.125 22.98C92.7316 23.1667 93.035 23.7267 93.035 24.66C93.035 25.2667 92.825 25.57 92.405 25.57C92.265 25.57 91.9383 25.4767 91.425 25.29C90.9116 25.0567 90.3983 24.94 89.885 24.94C87.4116 24.94 84.8216 25.6633 82.115 27.11C76.7016 30.0033 70.495 35.1833 63.495 42.65C61.4883 44.7967 59.1316 47.4567 56.425 50.63C53.765 53.8033 50.755 57.5133 47.395 61.76C42.075 68.48 38.8783 72.1433 37.805 72.75C35.7983 73.9167 34.2816 74.7333 33.255 75.2C32.275 75.7133 31.715 75.97 31.575 75.97Z" fill="#EF6F00"/>
<path d="M35.145 63.51L32.8532 62.511L32.8443 62.5315L32.8358 62.5521L35.145 63.51ZM37.525 58.05L39.8167 59.049L39.8167 59.049L37.525 58.05ZM39.835 52.59L42.1479 53.5389L42.1768 53.4684L42.2014 53.3963L39.835 52.59ZM43.055 43.14L45.4214 43.9463L45.4276 43.928L45.4336 43.9095L43.055 43.14ZM44.245 39.08L41.8376 38.4059L41.8281 38.4397L41.8196 38.4737L44.245 39.08ZM41.935 28.86L40.2626 30.7182L40.2755 30.7299L40.2887 30.7414L41.935 28.86ZM25.905 28.3L26.9309 30.5798L26.9394 30.576L26.9479 30.5721L25.905 28.3ZM18.205 33.48L16.4927 31.6584L16.4835 31.6671L16.4744 31.6758L18.205 33.48ZM12.675 40.83L14.889 41.991L14.8955 41.9786L12.675 40.83ZM15.475 60.92L14.5902 63.2582L14.6235 63.2708L14.6572 63.2825L15.475 60.92ZM23.595 60.5L24.713 62.7361L24.7424 62.7214L24.7714 62.7059L23.595 60.5ZM26.955 57.42L24.8863 56.0162L24.8688 56.042L24.852 56.0681L26.955 57.42ZM28.215 51.82L30.6403 51.2136L30.617 51.1205L30.5867 51.0294L28.215 51.82ZM29.475 52.1L26.9798 52.2559L26.9941 52.4843L27.0496 52.7063L29.475 52.1ZM29.545 52.66H27.045V52.9678L27.1196 53.2663L29.545 52.66ZM27.935 57.98L25.9582 56.4496H25.9582L27.935 57.98ZM23.595 61.55L24.737 63.7739L24.7482 63.7682L24.7593 63.7623L23.595 61.55ZM12.675 61.48L11.4816 63.6768L11.4961 63.6846L11.5106 63.6923L12.675 61.48ZM9.94496 40.2L7.7784 38.9526L7.77802 38.9533L9.94496 40.2ZM16.875 32.15L18.4406 34.0991H18.4406L16.875 32.15ZM26.255 26.83L27.1222 29.1748L27.1363 29.1696L27.1503 29.1642L26.255 26.83ZM42.705 25.99L41.7765 28.3112L41.8017 28.3213L41.8272 28.3308L42.705 25.99ZM47.115 29.28L45.0849 30.7391L45.1109 30.7752L45.1382 30.8104L47.115 29.28ZM42.915 54.41L45.1905 55.4453L45.1934 55.439L42.915 54.41ZM36.545 71.35L37.4734 73.6712L37.7047 73.5787L37.9131 73.4424L36.545 71.35ZM52.995 52.59L51.0769 50.9866L51.0738 50.9903L52.995 52.59ZM65.665 38.1L63.8411 36.3901L63.8404 36.3909L65.665 38.1ZM73.925 30.33L75.387 32.3579L75.4146 32.338L75.4416 32.3174L73.925 30.33ZM78.545 27.04L79.8969 29.1429L79.923 29.1261L79.9487 29.1087L78.545 27.04ZM81.695 25.01L80.4929 22.818L80.4599 22.8361L80.4274 22.8552L81.695 25.01ZM92.125 22.98L91.1634 25.2877L91.2746 25.334L91.3897 25.3694L92.125 22.98ZM91.425 25.29L90.3905 27.5659L90.4791 27.6062L90.5706 27.6395L91.425 25.29ZM82.115 27.11L80.9365 24.9052L80.9365 24.9052L82.115 27.11ZM63.495 42.65L61.6711 40.9401L61.6686 40.9428L63.495 42.65ZM56.425 50.63L54.5229 49.0076L54.5159 49.0158L54.509 49.024L56.425 50.63ZM47.395 61.76L49.3551 63.3118L49.3555 63.3112L47.395 61.76ZM37.805 72.75L36.5748 70.5736L36.5616 70.5811L36.5484 70.5887L37.805 72.75ZM33.255 75.2L32.2205 72.9241L32.1568 72.953L32.0949 72.9854L33.255 75.2ZM31.575 75.97V73.47C31.9541 73.47 32.3974 73.572 32.8086 73.8461C33.2042 74.1099 33.4294 74.4387 33.5485 74.677C33.7514 75.0827 33.725 75.3756 33.725 75.27H31.225H28.725C28.725 75.631 28.7569 76.274 29.0764 76.913C29.2538 77.2679 29.552 77.6843 30.0351 78.0064C30.5338 78.3389 31.0792 78.47 31.575 78.47V75.97ZM31.225 75.27H33.725C33.725 74.9615 33.9113 73.9616 34.5767 71.9656C35.2031 70.0864 36.1577 67.5932 37.4542 64.4679L35.145 63.51L32.8358 62.5521C31.5189 65.7268 30.5135 68.3436 29.8333 70.3844C29.1919 72.3084 28.725 74.0385 28.725 75.27H31.225ZM35.145 63.51L37.4367 64.509C38.23 62.689 39.0234 60.869 39.8167 59.049L37.525 58.05L35.2332 57.051C34.4399 58.871 33.6466 60.691 32.8532 62.511L35.145 63.51ZM37.525 58.05L39.8167 59.049C40.6172 57.2125 41.3943 55.3758 42.1479 53.5389L39.835 52.59L37.522 51.6411C36.7823 53.4442 36.0194 55.2475 35.2332 57.051L37.525 58.05ZM39.835 52.59L42.2014 53.3963L45.4214 43.9463L43.055 43.14L40.6886 42.3337L37.4686 51.7837L39.835 52.59ZM43.055 43.14L45.4336 43.9095C45.9574 42.2904 46.372 40.8794 46.6703 39.6863L44.245 39.08L41.8196 38.4737C41.5579 39.5206 41.1792 40.8163 40.6763 42.3704L43.055 43.14ZM44.245 39.08L46.6524 39.7541C47.0074 38.4861 47.235 37.2812 47.235 36.21H44.735H42.235C42.235 36.6322 42.1359 37.3405 41.8376 38.4059L44.245 39.08ZM44.735 36.21H47.235C47.235 32.4647 46.1495 29.2258 43.5812 26.9786L41.935 28.86L40.2887 30.7414C41.4538 31.7609 42.235 33.4219 42.235 36.21H44.735ZM41.935 28.86L43.6074 27.0018C41.1834 24.8202 38.0663 23.84 34.515 23.84V26.34V28.84C37.1237 28.84 38.9532 29.5398 40.2626 30.7182L41.935 28.86ZM34.515 26.34V23.84C31.2327 23.84 28.0085 24.5837 24.862 26.0279L25.905 28.3L26.9479 30.5721C29.4948 29.403 32.0106 28.84 34.515 28.84V26.34ZM25.905 28.3L24.879 26.0202C21.8157 27.3987 19.0191 29.2836 16.4927 31.6584L18.205 33.48L19.9172 35.3016C22.0575 33.2897 24.3942 31.7213 26.9309 30.5798L25.905 28.3ZM18.205 33.48L16.4744 31.6758C13.9975 34.0516 11.9856 36.7212 10.4544 39.6814L12.675 40.83L14.8955 41.9786C16.1643 39.5255 17.8391 37.295 19.9355 35.2842L18.205 33.48ZM12.675 40.83L10.4609 39.669C8.3311 43.7305 7.16496 47.6328 7.16496 51.33H9.66496H12.165C12.165 48.6806 13.0055 45.5829 14.889 41.991L12.675 40.83ZM9.66496 51.33H7.16496C7.16496 53.9521 7.81264 56.3877 9.13621 58.5745L11.275 57.28L13.4137 55.9855C12.5906 54.6256 12.165 53.0946 12.165 51.33H9.66496ZM11.275 57.28L9.13621 58.5745C10.4616 60.7642 12.2767 62.3828 14.5902 63.2582L15.475 60.92L16.3597 58.5818C15.2199 58.1505 14.235 57.3425 13.4137 55.9855L11.275 57.28ZM15.475 60.92L14.6572 63.2825C16.1072 63.7844 17.5734 64.05 19.045 64.05V61.55V59.05C18.1832 59.05 17.2694 58.8956 16.2927 58.5575L15.475 60.92ZM19.045 61.55V64.05C21.049 64.05 22.9506 63.6173 24.713 62.7361L23.595 60.5L22.4769 58.2639C21.4393 58.7827 20.3076 59.05 19.045 59.05V61.55ZM23.595 60.5L24.7714 62.7059C26.5397 61.7628 27.9819 60.4456 29.0579 58.7719L26.955 57.42L24.852 56.0681C24.248 57.0077 23.4503 57.7438 22.4185 58.2941L23.595 60.5ZM26.955 57.42L29.0236 58.8238C30.2014 57.0881 30.785 55.1256 30.785 53.01H28.285H25.785C25.785 54.161 25.4818 55.1386 24.8863 56.0162L26.955 57.42ZM28.285 53.01H30.785C30.785 53.0096 30.785 53.0093 30.785 53.0089C30.785 53.0085 30.785 53.0082 30.785 53.0078C30.785 53.0074 30.785 53.0071 30.785 53.0067C30.785 53.0064 30.785 53.006 30.785 53.0056C30.785 53.0053 30.785 53.0049 30.785 53.0045C30.785 53.0042 30.785 53.0038 30.785 53.0034C30.785 53.0031 30.785 53.0027 30.785 53.0023C30.785 53.002 30.785 53.0016 30.785 53.0013C30.785 53.0009 30.785 53.0005 30.785 53.0002C30.785 52.9998 30.785 52.9994 30.785 52.9991C30.785 52.9987 30.785 52.9983 30.785 52.998C30.785 52.9976 30.785 52.9972 30.785 52.9969C30.785 52.9965 30.785 52.9961 30.785 52.9958C30.785 52.9954 30.785 52.9951 30.785 52.9947C30.785 52.9943 30.785 52.994 30.785 52.9936C30.785 52.9932 30.785 52.9929 30.785 52.9925C30.785 52.9921 30.785 52.9918 30.785 52.9914C30.785 52.991 30.785 52.9907 30.785 52.9903C30.785 52.9899 30.785 52.9896 30.785 52.9892C30.785 52.9889 30.785 52.9885 30.785 52.9881C30.785 52.9878 30.785 52.9874 30.785 52.987C30.785 52.9867 30.785 52.9863 30.785 52.9859C30.785 52.9856 30.785 52.9852 30.785 52.9848C30.785 52.9845 30.785 52.9841 30.785 52.9837C30.785 52.9834 30.785 52.983 30.785 52.9827C30.785 52.9823 30.785 52.9819 30.785 52.9816C30.785 52.9812 30.785 52.9808 30.785 52.9805C30.785 52.9801 30.785 52.9797 30.785 52.9794C30.785 52.979 30.785 52.9786 30.785 52.9783C30.785 52.9779 30.785 52.9776 30.785 52.9772C30.785 52.9768 30.785 52.9765 30.785 52.9761C30.785 52.9757 30.785 52.9754 30.785 52.975C30.785 52.9746 30.785 52.9743 30.785 52.9739C30.785 52.9735 30.785 52.9732 30.785 52.9728C30.785 52.9724 30.785 52.9721 30.785 52.9717C30.785 52.9714 30.785 52.971 30.785 52.9706C30.785 52.9703 30.785 52.9699 30.785 52.9695C30.785 52.9692 30.785 52.9688 30.785 52.9684C30.785 52.9681 30.785 52.9677 30.785 52.9673C30.785 52.967 30.785 52.9666 30.785 52.9663C30.785 52.9659 30.785 52.9655 30.785 52.9652C30.785 52.9648 30.785 52.9644 30.785 52.9641C30.785 52.9637 30.785 52.9633 30.785 52.963C30.785 52.9626 30.785 52.9622 30.785 52.9619C30.785 52.9615 30.785 52.9611 30.785 52.9608C30.785 52.9604 30.785 52.9601 30.785 52.9597C30.785 52.9593 30.785 52.959 30.785 52.9586C30.785 52.9582 30.785 52.9579 30.785 52.9575C30.785 52.9571 30.785 52.9568 30.785 52.9564C30.785 52.956 30.785 52.9557 30.785 52.9553C30.785 52.9549 30.785 52.9546 30.785 52.9542C30.785 52.9539 30.785 52.9535 30.785 52.9531C30.785 52.9528 30.785 52.9524 30.785 52.952C30.785 52.9517 30.785 52.9513 30.785 52.9509C30.785 52.9506 30.785 52.9502 30.785 52.9498C30.785 52.9495 30.785 52.9491 30.785 52.9487C30.785 52.9484 30.785 52.948 30.785 52.9477C30.785 52.9473 30.785 52.9469 30.785 52.9466C30.785 52.9462 30.785 52.9458 30.785 52.9455C30.785 52.9451 30.785 52.9447 30.785 52.9444C30.785 52.944 30.785 52.9436 30.785 52.9433C30.785 52.9429 30.785 52.9426 30.785 52.9422C30.785 52.9418 30.785 52.9415 30.785 52.9411C30.785 52.9407 30.785 52.9404 30.785 52.94C30.785 52.9396 30.785 52.9393 30.785 52.9389C30.785 52.9385 30.785 52.9382 30.785 52.9378C30.785 52.9374 30.785 52.9371 30.785 52.9367C30.785 52.9364 30.785 52.936 30.785 52.9356C30.785 52.9353 30.785 52.9349 30.785 52.9345C30.785 52.9342 30.785 52.9338 30.785 52.9334C30.785 52.9331 30.785 52.9327 30.785 52.9323C30.785 52.932 30.785 52.9316 30.785 52.9313C30.785 52.9309 30.785 52.9305 30.785 52.9302C30.785 52.9298 30.785 52.9294 30.785 52.9291C30.785 52.9287 30.785 52.9283 30.785 52.928C30.785 52.9276 30.785 52.9272 30.785 52.9269C30.785 52.9265 30.785 52.9261 30.785 52.9258C30.785 52.9254 30.785 52.9251 30.785 52.9247C30.785 52.9243 30.785 52.924 30.785 52.9236C30.785 52.9232 30.785 52.9229 30.785 52.9225C30.785 52.9221 30.785 52.9218 30.785 52.9214C30.785 52.921 30.785 52.9207 30.785 52.9203C30.785 52.9199 30.785 52.9196 30.785 52.9192C30.785 52.9189 30.785 52.9185 30.785 52.9181C30.785 52.9178 30.785 52.9174 30.785 52.917C30.785 52.9167 30.785 52.9163 30.785 52.9159C30.785 52.9156 30.785 52.9152 30.785 52.9148C30.785 52.9145 30.785 52.9141 30.785 52.9137C30.785 52.9134 30.785 52.913 30.785 52.9127C30.785 52.9123 30.785 52.9119 30.785 52.9116C30.785 52.9112 30.785 52.9108 30.785 52.9105C30.785 52.9101 30.785 52.9097 30.785 52.9094C30.785 52.909 30.785 52.9086 30.785 52.9083C30.785 52.9079 30.785 52.9076 30.785 52.9072C30.785 52.9068 30.785 52.9065 30.785 52.9061C30.785 52.9057 30.785 52.9054 30.785 52.905C30.785 52.9046 30.785 52.9043 30.785 52.9039C30.785 52.9035 30.785 52.9032 30.785 52.9028C30.785 52.9024 30.785 52.9021 30.785 52.9017C30.785 52.9014 30.785 52.901 30.785 52.9006C30.785 52.9003 30.785 52.8999 30.785 52.8995C30.785 52.8992 30.785 52.8988 30.785 52.8984C30.785 52.8981 30.785 52.8977 30.785 52.8973C30.785 52.897 30.785 52.8966 30.785 52.8963C30.785 52.8959 30.785 52.8955 30.785 52.8952C30.785 52.8948 30.785 52.8944 30.785 52.8941C30.785 52.8937 30.785 52.8933 30.785 52.893C30.785 52.8926 30.785 52.8922 30.785 52.8919C30.785 52.8915 30.785 52.8911 30.785 52.8908C30.785 52.8904 30.785 52.8901 30.785 52.8897C30.785 52.8893 30.785 52.889 30.785 52.8886C30.785 52.8882 30.785 52.8879 30.785 52.8875C30.785 52.8871 30.785 52.8868 30.785 52.8864C30.785 52.886 30.785 52.8857 30.785 52.8853C30.785 52.8849 30.785 52.8846 30.785 52.8842C30.785 52.8839 30.785 52.8835 30.785 52.8831C30.785 52.8828 30.785 52.8824 30.785 52.882C30.785 52.8817 30.785 52.8813 30.785 52.8809C30.785 52.8806 30.785 52.8802 30.785 52.8798C30.785 52.8795 30.785 52.8791 30.785 52.8787C30.785 52.8784 30.785 52.878 30.785 52.8777C30.785 52.8773 30.785 52.8769 30.785 52.8766C30.785 52.8762 30.785 52.8758 30.785 52.8755C30.785 52.8751 30.785 52.8747 30.785 52.8744C30.785 52.874 30.785 52.8736 30.785 52.8733C30.785 52.8729 30.785 52.8726 30.785 52.8722C30.785 52.8718 30.785 52.8715 30.785 52.8711C30.785 52.8707 30.785 52.8704 30.785 52.87C30.785 52.8696 30.785 52.8693 30.785 52.8689C30.785 52.8685 30.785 52.8682 30.785 52.8678C30.785 52.8674 30.785 52.8671 30.785 52.8667C30.785 52.8664 30.785 52.866 30.785 52.8656C30.785 52.8653 30.785 52.8649 30.785 52.8645C30.785 52.8642 30.785 52.8638 30.785 52.8634C30.785 52.8631 30.785 52.8627 30.785 52.8623C30.785 52.862 30.785 52.8616 30.785 52.8612C30.785 52.8609 30.785 52.8605 30.785 52.8602C30.785 52.8598 30.785 52.8594 30.785 52.8591C30.785 52.8587 30.785 52.8583 30.785 52.858C30.785 52.8576 30.785 52.8572 30.785 52.8569C30.785 52.8565 30.785 52.8561 30.785 52.8558C30.785 52.8554 30.785 52.8551 30.785 52.8547C30.785 52.8543 30.785 52.854 30.785 52.8536C30.785 52.8532 30.785 52.8529 30.785 52.8525C30.785 52.8521 30.785 52.8518 30.785 52.8514C30.785 52.851 30.785 52.8507 30.785 52.8503C30.785 52.8499 30.785 52.8496 30.785 52.8492C30.785 52.8489 30.785 52.8485 30.785 52.8481C30.785 52.8478 30.785 52.8474 30.785 52.847C30.785 52.8467 30.785 52.8463 30.785 52.8459C30.785 52.8456 30.785 52.8452 30.785 52.8448C30.785 52.8445 30.785 52.8441 30.785 52.8438C30.785 52.8434 30.785 52.843 30.785 52.8427C30.785 52.8423 30.785 52.8419 30.785 52.8416C30.785 52.8412 30.785 52.8408 30.785 52.8405C30.785 52.8401 30.785 52.8397 30.785 52.8394C30.785 52.839 30.785 52.8386 30.785 52.8383C30.785 52.8379 30.785 52.8376 30.785 52.8372C30.785 52.8368 30.785 52.8365 30.785 52.8361C30.785 52.8357 30.785 52.8354 30.785 52.835C30.785 52.8346 30.785 52.8343 30.785 52.8339C30.785 52.8335 30.785 52.8332 30.785 52.8328C30.785 52.8324 30.785 52.8321 30.785 52.8317C30.785 52.8314 30.785 52.831 30.785 52.8306C30.785 52.8303 30.785 52.8299 30.785 52.8295C30.785 52.8292 30.785 52.8288 30.785 52.8284C30.785 52.8281 30.785 52.8277 30.785 52.8273C30.785 52.827 30.785 52.8266 30.785 52.8262C30.785 52.8259 30.785 52.8255 30.785 52.8252C30.785 52.8248 30.785 52.8244 30.785 52.8241C30.785 52.8237 30.785 52.8233 30.785 52.823C30.785 52.8226 30.785 52.8222 30.785 52.8219C30.785 52.8215 30.785 52.8211 30.785 52.8208C30.785 52.8204 30.785 52.8201 30.785 52.8197C30.785 52.8193 30.785 52.819 30.785 52.8186C30.785 52.8182 30.785 52.8179 30.785 52.8175C30.785 52.8171 30.785 52.8168 30.785 52.8164C30.785 52.816 30.785 52.8157 30.785 52.8153C30.785 52.8149 30.785 52.8146 30.785 52.8142C30.785 52.8139 30.785 52.8135 30.785 52.8131C30.785 52.8128 30.785 52.8124 30.785 52.812C30.785 52.8117 30.785 52.8113 30.785 52.8109C30.785 52.8106 30.785 52.8102 30.785 52.8098C30.785 52.8095 30.785 52.8091 30.785 52.8088C30.785 52.8084 30.785 52.808 30.785 52.8077C30.785 52.8073 30.785 52.8069 30.785 52.8066C30.785 52.8062 30.785 52.8058 30.785 52.8055C30.785 52.8051 30.785 52.8047 30.785 52.8044C30.785 52.804 30.785 52.8036 30.785 52.8033C30.785 52.8029 30.785 52.8026 30.785 52.8022C30.785 52.8018 30.785 52.8015 30.785 52.8011C30.785 52.8007 30.785 52.8004 30.785 52.8C30.785 52.7996 30.785 52.7993 30.785 52.7989C30.785 52.7985 30.785 52.7982 30.785 52.7978C30.785 52.7974 30.785 52.7971 30.785 52.7967C30.785 52.7964 30.785 52.796 30.785 52.7956C30.785 52.7953 30.785 52.7949 30.785 52.7945C30.785 52.7942 30.785 52.7938 30.785 52.7934C30.785 52.7931 30.785 52.7927 30.785 52.7923C30.785 52.792 30.785 52.7916 30.785 52.7912C30.785 52.7909 30.785 52.7905 30.785 52.7902C30.785 52.7898 30.785 52.7894 30.785 52.7891C30.785 52.7887 30.785 52.7883 30.785 52.788C30.785 52.7876 30.785 52.7872 30.785 52.7869C30.785 52.7865 30.785 52.7861 30.785 52.7858C30.785 52.7854 30.785 52.7851 30.785 52.7847C30.785 52.7843 30.785 52.784 30.785 52.7836C30.785 52.7832 30.785 52.7829 30.785 52.7825C30.785 52.7821 30.785 52.7818 30.785 52.7814C30.785 52.781 30.785 52.7807 30.785 52.7803C30.785 52.7799 30.785 52.7796 30.785 52.7792C30.785 52.7789 30.785 52.7785 30.785 52.7781C30.785 52.7778 30.785 52.7774 30.785 52.777C30.785 52.7767 30.785 52.7763 30.785 52.7759C30.785 52.7756 30.785 52.7752 30.785 52.7748C30.785 52.7745 30.785 52.7741 30.785 52.7738C30.785 52.7734 30.785 52.773 30.785 52.7727C30.785 52.7723 30.785 52.7719 30.785 52.7716C30.785 52.7712 30.785 52.7708 30.785 52.7705C30.785 52.7701 30.785 52.7697 30.785 52.7694C30.785 52.769 30.785 52.7686 30.785 52.7683C30.785 52.7679 30.785 52.7676 30.785 52.7672C30.785 52.7668 30.785 52.7665 30.785 52.7661C30.785 52.7657 30.785 52.7654 30.785 52.765C30.785 52.7646 30.785 52.7643 30.785 52.7639C30.785 52.7635 30.785 52.7632 30.785 52.7628C30.785 52.7624 30.785 52.7621 30.785 52.7617C30.785 52.7614 30.785 52.761 30.785 52.7606C30.785 52.7603 30.785 52.7599 30.785 52.7595C30.785 52.7592 30.785 52.7588 30.785 52.7584C30.785 52.7581 30.785 52.7577 30.785 52.7573C30.785 52.757 30.785 52.7566 30.785 52.7562C30.785 52.7559 30.785 52.7555 30.785 52.7552C30.785 52.7548 30.785 52.7544 30.785 52.7541C30.785 52.7537 30.785 52.7533 30.785 52.753C30.785 52.7526 30.785 52.7522 30.785 52.7519C30.785 52.7515 30.785 52.7511 30.785 52.7508C30.785 52.7504 30.785 52.7501 30.785 52.7497C30.785 52.7493 30.785 52.749 30.785 52.7486C30.785 52.7482 30.785 52.7479 30.785 52.7475C30.785 52.7471 30.785 52.7468 30.785 52.7464C30.785 52.746 30.785 52.7457 30.785 52.7453C30.785 52.7449 30.785 52.7446 30.785 52.7442C30.785 52.7439 30.785 52.7435 30.785 52.7431C30.785 52.7428 30.785 52.7424 30.785 52.742C30.785 52.7417 30.785 52.7413 30.785 52.7409C30.785 52.7406 30.785 52.7402 30.785 52.7398C30.785 52.7395 30.785 52.7391 30.785 52.7388C30.785 52.7384 30.785 52.738 30.785 52.7377C30.785 52.7373 30.785 52.7369 30.785 52.7366C30.785 52.7362 30.785 52.7358 30.785 52.7355C30.785 52.7351 30.785 52.7347 30.785 52.7344C30.785 52.734 30.785 52.7336 30.785 52.7333C30.785 52.7329 30.785 52.7326 30.785 52.7322C30.785 52.7318 30.785 52.7315 30.785 52.7311C30.785 52.7307 30.785 52.7304 30.785 52.73C30.785 52.7296 30.785 52.7293 30.785 52.7289C30.785 52.7285 30.785 52.7282 30.785 52.7278C30.785 52.7274 30.785 52.7271 30.785 52.7267C30.785 52.7264 30.785 52.726 30.785 52.7256C30.785 52.7253 30.785 52.7249 30.785 52.7245C30.785 52.7242 30.785 52.7238 30.785 52.7234C30.785 52.7231 30.785 52.7227 30.785 52.7223C30.785 52.722 30.785 52.7216 30.785 52.7212C30.785 52.7209 30.785 52.7205 30.785 52.7202C30.785 52.7198 30.785 52.7194 30.785 52.7191C30.785 52.7187 30.785 52.7183 30.785 52.718C30.785 52.7176 30.785 52.7172 30.785 52.7169C30.785 52.7165 30.785 52.7161 30.785 52.7158C30.785 52.7154 30.785 52.715 30.785 52.7147C30.785 52.7143 30.785 52.714 30.785 52.7136C30.785 52.7132 30.785 52.7129 30.785 52.7125C30.785 52.7121 30.785 52.7118 30.785 52.7114C30.785 52.711 30.785 52.7107 30.785 52.7103C30.785 52.7099 30.785 52.7096 30.785 52.7092C30.785 52.7089 30.785 52.7085 30.785 52.7081C30.785 52.7078 30.785 52.7074 30.785 52.707C30.785 52.7067 30.785 52.7063 30.785 52.7059C30.785 52.7056 30.785 52.7052 30.785 52.7048C30.785 52.7045 30.785 52.7041 30.785 52.7038C30.785 52.7034 30.785 52.703 30.785 52.7027C30.785 52.7023 30.785 52.7019 30.785 52.7016C30.785 52.7012 30.785 52.7008 30.785 52.7005C30.785 52.7001 30.785 52.6997 30.785 52.6994C30.785 52.699 30.785 52.6986 30.785 52.6983C30.785 52.6979 30.785 52.6976 30.785 52.6972C30.785 52.6968 30.785 52.6965 30.785 52.6961C30.785 52.6957 30.785 52.6954 30.785 52.695C30.785 52.6946 30.785 52.6943 30.785 52.6939C30.785 52.6935 30.785 52.6932 30.785 52.6928C30.785 52.6924 30.785 52.6921 30.785 52.6917C30.785 52.6914 30.785 52.691 30.785 52.6906C30.785 52.6903 30.785 52.6899 30.785 52.6895C30.785 52.6892 30.785 52.6888 30.785 52.6884C30.785 52.6881 30.785 52.6877 30.785 52.6873C30.785 52.687 30.785 52.6866 30.785 52.6862C30.785 52.6859 30.785 52.6855 30.785 52.6852C30.785 52.6848 30.785 52.6844 30.785 52.6841C30.785 52.6837 30.785 52.6833 30.785 52.683C30.785 52.6826 30.785 52.6822 30.785 52.6819C30.785 52.6815 30.785 52.6811 30.785 52.6808C30.785 52.6804 30.785 52.68 30.785 52.6797C30.785 52.6793 30.785 52.679 30.785 52.6786C30.785 52.6782 30.785 52.6779 30.785 52.6775C30.785 52.6771 30.785 52.6768 30.785 52.6764C30.785 52.676 30.785 52.6757 30.785 52.6753C30.785 52.6749 30.785 52.6746 30.785 52.6742C30.785 52.6739 30.785 52.6735 30.785 52.6731C30.785 52.6728 30.785 52.6724 30.785 52.672C30.785 52.6717 30.785 52.6713 30.785 52.6709C30.785 52.6706 30.785 52.6702 30.785 52.6698C30.785 52.6695 30.785 52.6691 30.785 52.6688C30.785 52.6684 30.785 52.668 30.785 52.6677C30.785 52.6673 30.785 52.6669 30.785 52.6666C30.785 52.6662 30.785 52.6658 30.785 52.6655C30.785 52.6651 30.785 52.6647 30.785 52.6644C30.785 52.664 30.785 52.6636 30.785 52.6633C30.785 52.6629 30.785 52.6626 30.785 52.6622C30.785 52.6618 30.785 52.6615 30.785 52.6611C30.785 52.6607 30.785 52.6604 30.785 52.66C30.785 52.6596 30.785 52.6593 30.785 52.6589C30.785 52.6585 30.785 52.6582 30.785 52.6578C30.785 52.6574 30.785 52.6571 30.785 52.6567C30.785 52.6564 30.785 52.656 30.785 52.6556C30.785 52.6553 30.785 52.6549 30.785 52.6545C30.785 52.6542 30.785 52.6538 30.785 52.6534C30.785 52.6531 30.785 52.6527 30.785 52.6523C30.785 52.652 30.785 52.6516 30.785 52.6512C30.785 52.6509 30.785 52.6505 30.785 52.6502C30.785 52.6498 30.785 52.6494 30.785 52.6491C30.785 52.6487 30.785 52.6483 30.785 52.648C30.785 52.6476 30.785 52.6472 30.785 52.6469C30.785 52.6465 30.785 52.6461 30.785 52.6458C30.785 52.6454 30.785 52.6451 30.785 52.6447C30.785 52.6443 30.785 52.644 30.785 52.6436C30.785 52.6432 30.785 52.6429 30.785 52.6425C30.785 52.6421 30.785 52.6418 30.785 52.6414C30.785 52.641 30.785 52.6407 30.785 52.6403C30.785 52.6399 30.785 52.6396 30.785 52.6392C30.785 52.6389 30.785 52.6385 30.785 52.6381C30.785 52.6378 30.785 52.6374 30.785 52.637C30.785 52.6367 30.785 52.6363 30.785 52.6359C30.785 52.6356 30.785 52.6352 30.785 52.6348C30.785 52.6345 30.785 52.6341 30.785 52.6338C30.785 52.6334 30.785 52.633 30.785 52.6327C30.785 52.6323 30.785 52.6319 30.785 52.6316C30.785 52.6312 30.785 52.6308 30.785 52.6305C30.785 52.6301 30.785 52.6297 30.785 52.6294C30.785 52.629 30.785 52.6286 30.785 52.6283C30.785 52.6279 30.785 52.6276 30.785 52.6272C30.785 52.6268 30.785 52.6265 30.785 52.6261C30.785 52.6257 30.785 52.6254 30.785 52.625C30.785 52.6246 30.785 52.6243 30.785 52.6239C30.785 52.6235 30.785 52.6232 30.785 52.6228C30.785 52.6224 30.785 52.6221 30.785 52.6217C30.785 52.6214 30.785 52.621 30.785 52.6206C30.785 52.6203 30.785 52.6199 30.785 52.6195C30.785 52.6192 30.785 52.6188 30.785 52.6184C30.785 52.6181 30.785 52.6177 30.785 52.6173C30.785 52.617 30.785 52.6166 30.785 52.6162C30.785 52.6159 30.785 52.6155 30.785 52.6152C30.785 52.6148 30.785 52.6144 30.785 52.6141C30.785 52.6137 30.785 52.6133 30.785 52.613C30.785 52.6126 30.785 52.6122 30.785 52.6119C30.785 52.6115 30.785 52.6111 30.785 52.6108C30.785 52.6104 30.785 52.6101 30.785 52.6097C30.785 52.6093 30.785 52.609 30.785 52.6086C30.785 52.6082 30.785 52.6079 30.785 52.6075C30.785 52.6071 30.785 52.6068 30.785 52.6064C30.785 52.606 30.785 52.6057 30.785 52.6053C30.785 52.6049 30.785 52.6046 30.785 52.6042C30.785 52.6039 30.785 52.6035 30.785 52.6031C30.785 52.6028 30.785 52.6024 30.785 52.602C30.785 52.6017 30.785 52.6013 30.785 52.6009C30.785 52.6006 30.785 52.6002 30.785 52.5998C30.785 52.5995 30.785 52.5991 30.785 52.5988C30.785 52.5984 30.785 52.598 30.785 52.5977C30.785 52.5973 30.785 52.5969 30.785 52.5966C30.785 52.5962 30.785 52.5958 30.785 52.5955C30.785 52.5951 30.785 52.5947 30.785 52.5944C30.785 52.594 30.785 52.5936 30.785 52.5933C30.785 52.5929 30.785 52.5926 30.785 52.5922C30.785 52.5918 30.785 52.5915 30.785 52.5911C30.785 52.5907 30.785 52.5904 30.785 52.59C30.785 52.5896 30.785 52.5893 30.785 52.5889C30.785 52.5885 30.785 52.5882 30.785 52.5878C30.785 52.5874 30.785 52.5871 30.785 52.5867C30.785 52.5864 30.785 52.586 30.785 52.5856C30.785 52.5853 30.785 52.5849 30.785 52.5845C30.785 52.5842 30.785 52.5838 30.785 52.5834C30.785 52.5831 30.785 52.5827 30.785 52.5823C30.785 52.582 30.785 52.5816 30.785 52.5812C30.785 52.5809 30.785 52.5805 30.785 52.5802C30.785 52.5798 30.785 52.5794 30.785 52.5791C30.785 52.5787 30.785 52.5783 30.785 52.578C30.785 52.5776 30.785 52.5772 30.785 52.5769C30.785 52.5765 30.785 52.5761 30.785 52.5758C30.785 52.5754 30.785 52.5751 30.785 52.5747C30.785 52.5743 30.785 52.574 30.785 52.5736C30.785 52.5732 30.785 52.5729 30.785 52.5725C30.785 52.5721 30.785 52.5718 30.785 52.5714C30.785 52.571 30.785 52.5707 30.785 52.5703C30.785 52.5699 30.785 52.5696 30.785 52.5692C30.785 52.5689 30.785 52.5685 30.785 52.5681C30.785 52.5678 30.785 52.5674 30.785 52.567C30.785 52.5667 30.785 52.5663 30.785 52.5659C30.785 52.5656 30.785 52.5652 30.785 52.5648C30.785 52.5645 30.785 52.5641 30.785 52.5637C30.785 52.5634 30.785 52.563 30.785 52.5627C30.785 52.5623 30.785 52.5619 30.785 52.5616C30.785 52.5612 30.785 52.5608 30.785 52.5605C30.785 52.5601 30.785 52.5597 30.785 52.5594C30.785 52.559 30.785 52.5586 30.785 52.5583C30.785 52.5579 30.785 52.5576 30.785 52.5572C30.785 52.5568 30.785 52.5565 30.785 52.5561C30.785 52.5557 30.785 52.5554 30.785 52.555C30.785 52.5546 30.785 52.5543 30.785 52.5539C30.785 52.5535 30.785 52.5532 30.785 52.5528C30.785 52.5524 30.785 52.5521 30.785 52.5517C30.785 52.5514 30.785 52.551 30.785 52.5506C30.785 52.5503 30.785 52.5499 30.785 52.5495C30.785 52.5492 30.785 52.5488 30.785 52.5484C30.785 52.5481 30.785 52.5477 30.785 52.5473C30.785 52.547 30.785 52.5466 30.785 52.5462C30.785 52.5459 30.785 52.5455 30.785 52.5452C30.785 52.5448 30.785 52.5444 30.785 52.5441C30.785 52.5437 30.785 52.5433 30.785 52.543C30.785 52.5426 30.785 52.5422 30.785 52.5419C30.785 52.5415 30.785 52.5411 30.785 52.5408C30.785 52.5404 30.785 52.5401 30.785 52.5397C30.785 52.5393 30.785 52.539 30.785 52.5386C30.785 52.5382 30.785 52.5379 30.785 52.5375C30.785 52.5371 30.785 52.5368 30.785 52.5364C30.785 52.536 30.785 52.5357 30.785 52.5353C30.785 52.5349 30.785 52.5346 30.785 52.5342C30.785 52.5339 30.785 52.5335 30.785 52.5331C30.785 52.5328 30.785 52.5324 30.785 52.532C30.785 52.5317 30.785 52.5313 30.785 52.5309C30.785 52.5306 30.785 52.5302 30.785 52.5298C30.785 52.5295 30.785 52.5291 30.785 52.5287C30.785 52.5284 30.785 52.528 30.785 52.5277C30.785 52.5273 30.785 52.5269 30.785 52.5266C30.785 52.5262 30.785 52.5258 30.785 52.5255C30.785 52.5251 30.785 52.5247 30.785 52.5244C30.785 52.524 30.785 52.5236 30.785 52.5233C30.785 52.5229 30.785 52.5226 30.785 52.5222C30.785 52.5218 30.785 52.5215 30.785 52.5211C30.785 52.5207 30.785 52.5204 30.785 52.52C30.785 52.5196 30.785 52.5193 30.785 52.5189C30.785 52.5185 30.785 52.5182 30.785 52.5178C30.785 52.5174 30.785 52.5171 30.785 52.5167C30.785 52.5164 30.785 52.516 30.785 52.5156C30.785 52.5153 30.785 52.5149 30.785 52.5145C30.785 52.5142 30.785 52.5138 30.785 52.5134C30.785 52.5131 30.785 52.5127 30.785 52.5123C30.785 52.512 30.785 52.5116 30.785 52.5112C30.785 52.5109 30.785 52.5105 30.785 52.5102C30.785 52.5098 30.785 52.5094 30.785 52.5091C30.785 52.5087 30.785 52.5083 30.785 52.508C30.785 52.5076 30.785 52.5072 30.785 52.5069C30.785 52.5065 30.785 52.5061 30.785 52.5058C30.785 52.5054 30.785 52.5051 30.785 52.5047C30.785 52.5043 30.785 52.504 30.785 52.5036C30.785 52.5032 30.785 52.5029 30.785 52.5025C30.785 52.5021 30.785 52.5018 30.785 52.5014C30.785 52.501 30.785 52.5007 30.785 52.5003C30.785 52.4999 30.785 52.4996 30.785 52.4992C30.785 52.4989 30.785 52.4985 30.785 52.4981C30.785 52.4978 30.785 52.4974 30.785 52.497C30.785 52.4967 30.785 52.4963 30.785 52.4959C30.785 52.4956 30.785 52.4952 30.785 52.4948C30.785 52.4945 30.785 52.4941 30.785 52.4937C30.785 52.4934 30.785 52.493 30.785 52.4927C30.785 52.4923 30.785 52.4919 30.785 52.4916C30.785 52.4912 30.785 52.4908 30.785 52.4905C30.785 52.4901 30.785 52.4897 30.785 52.4894C30.785 52.489 30.785 52.4886 30.785 52.4883C30.785 52.4879 30.785 52.4876 30.785 52.4872C30.785 52.4868 30.785 52.4865 30.785 52.4861C30.785 52.4857 30.785 52.4854 30.785 52.485C30.785 52.4846 30.785 52.4843 30.785 52.4839C30.785 52.4835 30.785 52.4832 30.785 52.4828C30.785 52.4824 30.785 52.4821 30.785 52.4817C30.785 52.4814 30.785 52.481 30.785 52.4806C30.785 52.4803 30.785 52.4799 30.785 52.4795C30.785 52.4792 30.785 52.4788 30.785 52.4784C30.785 52.4781 30.785 52.4777 30.785 52.4773C30.785 52.477 30.785 52.4766 30.785 52.4762C30.785 52.4759 30.785 52.4755 30.785 52.4752C30.785 52.4748 30.785 52.4744 30.785 52.4741C30.785 52.4737 30.785 52.4733 30.785 52.473C30.785 52.4726 30.785 52.4722 30.785 52.4719C30.785 52.4715 30.785 52.4711 30.785 52.4708C30.785 52.4704 30.785 52.4701 30.785 52.4697C30.785 52.4693 30.785 52.469 30.785 52.4686C30.785 52.4682 30.785 52.4679 30.785 52.4675C30.785 52.4671 30.785 52.4668 30.785 52.4664C30.785 52.466 30.785 52.4657 30.785 52.4653C30.785 52.4649 30.785 52.4646 30.785 52.4642C30.785 52.4639 30.785 52.4635 30.785 52.4631C30.785 52.4628 30.785 52.4624 30.785 52.462C30.785 52.4617 30.785 52.4613 30.785 52.4609C30.785 52.4606 30.785 52.4602 30.785 52.4598C30.785 52.4595 30.785 52.4591 30.785 52.4587C30.785 52.4584 30.785 52.458 30.785 52.4577C30.785 52.4573 30.785 52.4569 30.785 52.4566C30.785 52.4562 30.785 52.4558 30.785 52.4555C30.785 52.4551 30.785 52.4547 30.785 52.4544C30.785 52.454 30.785 52.4536 30.785 52.4533C30.785 52.4529 30.785 52.4526 30.785 52.4522C30.785 52.4518 30.785 52.4515 30.785 52.4511C30.785 52.4507 30.785 52.4504 30.785 52.45H28.285H25.785C25.785 52.4504 25.785 52.4507 25.785 52.4511C25.785 52.4515 25.785 52.4518 25.785 52.4522C25.785 52.4526 25.785 52.4529 25.785 52.4533C25.785 52.4536 25.785 52.454 25.785 52.4544C25.785 52.4547 25.785 52.4551 25.785 52.4555C25.785 52.4558 25.785 52.4562 25.785 52.4566C25.785 52.4569 25.785 52.4573 25.785 52.4577C25.785 52.458 25.785 52.4584 25.785 52.4587C25.785 52.4591 25.785 52.4595 25.785 52.4598C25.785 52.4602 25.785 52.4606 25.785 52.4609C25.785 52.4613 25.785 52.4617 25.785 52.462C25.785 52.4624 25.785 52.4628 25.785 52.4631C25.785 52.4635 25.785 52.4639 25.785 52.4642C25.785 52.4646 25.785 52.4649 25.785 52.4653C25.785 52.4657 25.785 52.466 25.785 52.4664C25.785 52.4668 25.785 52.4671 25.785 52.4675C25.785 52.4679 25.785 52.4682 25.785 52.4686C25.785 52.469 25.785 52.4693 25.785 52.4697C25.785 52.4701 25.785 52.4704 25.785 52.4708C25.785 52.4711 25.785 52.4715 25.785 52.4719C25.785 52.4722 25.785 52.4726 25.785 52.473C25.785 52.4733 25.785 52.4737 25.785 52.4741C25.785 52.4744 25.785 52.4748 25.785 52.4752C25.785 52.4755 25.785 52.4759 25.785 52.4762C25.785 52.4766 25.785 52.477 25.785 52.4773C25.785 52.4777 25.785 52.4781 25.785 52.4784C25.785 52.4788 25.785 52.4792 25.785 52.4795C25.785 52.4799 25.785 52.4803 25.785 52.4806C25.785 52.481 25.785 52.4814 25.785 52.4817C25.785 52.4821 25.785 52.4824 25.785 52.4828C25.785 52.4832 25.785 52.4835 25.785 52.4839C25.785 52.4843 25.785 52.4846 25.785 52.485C25.785 52.4854 25.785 52.4857 25.785 52.4861C25.785 52.4865 25.785 52.4868 25.785 52.4872C25.785 52.4876 25.785 52.4879 25.785 52.4883C25.785 52.4886 25.785 52.489 25.785 52.4894C25.785 52.4897 25.785 52.4901 25.785 52.4905C25.785 52.4908 25.785 52.4912 25.785 52.4916C25.785 52.4919 25.785 52.4923 25.785 52.4927C25.785 52.493 25.785 52.4934 25.785 52.4937C25.785 52.4941 25.785 52.4945 25.785 52.4948C25.785 52.4952 25.785 52.4956 25.785 52.4959C25.785 52.4963 25.785 52.4967 25.785 52.497C25.785 52.4974 25.785 52.4978 25.785 52.4981C25.785 52.4985 25.785 52.4989 25.785 52.4992C25.785 52.4996 25.785 52.4999 25.785 52.5003C25.785 52.5007 25.785 52.501 25.785 52.5014C25.785 52.5018 25.785 52.5021 25.785 52.5025C25.785 52.5029 25.785 52.5032 25.785 52.5036C25.785 52.504 25.785 52.5043 25.785 52.5047C25.785 52.5051 25.785 52.5054 25.785 52.5058C25.785 52.5061 25.785 52.5065 25.785 52.5069C25.785 52.5072 25.785 52.5076 25.785 52.508C25.785 52.5083 25.785 52.5087 25.785 52.5091C25.785 52.5094 25.785 52.5098 25.785 52.5102C25.785 52.5105 25.785 52.5109 25.785 52.5112C25.785 52.5116 25.785 52.512 25.785 52.5123C25.785 52.5127 25.785 52.5131 25.785 52.5134C25.785 52.5138 25.785 52.5142 25.785 52.5145C25.785 52.5149 25.785 52.5153 25.785 52.5156C25.785 52.516 25.785 52.5164 25.785 52.5167C25.785 52.5171 25.785 52.5174 25.785 52.5178C25.785 52.5182 25.785 52.5185 25.785 52.5189C25.785 52.5193 25.785 52.5196 25.785 52.52C25.785 52.5204 25.785 52.5207 25.785 52.5211C25.785 52.5215 25.785 52.5218 25.785 52.5222C25.785 52.5226 25.785 52.5229 25.785 52.5233C25.785 52.5236 25.785 52.524 25.785 52.5244C25.785 52.5247 25.785 52.5251 25.785 52.5255C25.785 52.5258 25.785 52.5262 25.785 52.5266C25.785 52.5269 25.785 52.5273 25.785 52.5277C25.785 52.528 25.785 52.5284 25.785 52.5287C25.785 52.5291 25.785 52.5295 25.785 52.5298C25.785 52.5302 25.785 52.5306 25.785 52.5309C25.785 52.5313 25.785 52.5317 25.785 52.532C25.785 52.5324 25.785 52.5328 25.785 52.5331C25.785 52.5335 25.785 52.5339 25.785 52.5342C25.785 52.5346 25.785 52.5349 25.785 52.5353C25.785 52.5357 25.785 52.536 25.785 52.5364C25.785 52.5368 25.785 52.5371 25.785 52.5375C25.785 52.5379 25.785 52.5382 25.785 52.5386C25.785 52.539 25.785 52.5393 25.785 52.5397C25.785 52.5401 25.785 52.5404 25.785 52.5408C25.785 52.5411 25.785 52.5415 25.785 52.5419C25.785 52.5422 25.785 52.5426 25.785 52.543C25.785 52.5433 25.785 52.5437 25.785 52.5441C25.785 52.5444 25.785 52.5448 25.785 52.5452C25.785 52.5455 25.785 52.5459 25.785 52.5462C25.785 52.5466 25.785 52.547 25.785 52.5473C25.785 52.5477 25.785 52.5481 25.785 52.5484C25.785 52.5488 25.785 52.5492 25.785 52.5495C25.785 52.5499 25.785 52.5503 25.785 52.5506C25.785 52.551 25.785 52.5514 25.785 52.5517C25.785 52.5521 25.785 52.5524 25.785 52.5528C25.785 52.5532 25.785 52.5535 25.785 52.5539C25.785 52.5543 25.785 52.5546 25.785 52.555C25.785 52.5554 25.785 52.5557 25.785 52.5561C25.785 52.5565 25.785 52.5568 25.785 52.5572C25.785 52.5576 25.785 52.5579 25.785 52.5583C25.785 52.5586 25.785 52.559 25.785 52.5594C25.785 52.5597 25.785 52.5601 25.785 52.5605C25.785 52.5608 25.785 52.5612 25.785 52.5616C25.785 52.5619 25.785 52.5623 25.785 52.5627C25.785 52.563 25.785 52.5634 25.785 52.5637C25.785 52.5641 25.785 52.5645 25.785 52.5648C25.785 52.5652 25.785 52.5656 25.785 52.5659C25.785 52.5663 25.785 52.5667 25.785 52.567C25.785 52.5674 25.785 52.5678 25.785 52.5681C25.785 52.5685 25.785 52.5689 25.785 52.5692C25.785 52.5696 25.785 52.5699 25.785 52.5703C25.785 52.5707 25.785 52.571 25.785 52.5714C25.785 52.5718 25.785 52.5721 25.785 52.5725C25.785 52.5729 25.785 52.5732 25.785 52.5736C25.785 52.574 25.785 52.5743 25.785 52.5747C25.785 52.5751 25.785 52.5754 25.785 52.5758C25.785 52.5761 25.785 52.5765 25.785 52.5769C25.785 52.5772 25.785 52.5776 25.785 52.578C25.785 52.5783 25.785 52.5787 25.785 52.5791C25.785 52.5794 25.785 52.5798 25.785 52.5802C25.785 52.5805 25.785 52.5809 25.785 52.5812C25.785 52.5816 25.785 52.582 25.785 52.5823C25.785 52.5827 25.785 52.5831 25.785 52.5834C25.785 52.5838 25.785 52.5842 25.785 52.5845C25.785 52.5849 25.785 52.5853 25.785 52.5856C25.785 52.586 25.785 52.5864 25.785 52.5867C25.785 52.5871 25.785 52.5874 25.785 52.5878C25.785 52.5882 25.785 52.5885 25.785 52.5889C25.785 52.5893 25.785 52.5896 25.785 52.59C25.785 52.5904 25.785 52.5907 25.785 52.5911C25.785 52.5915 25.785 52.5918 25.785 52.5922C25.785 52.5926 25.785 52.5929 25.785 52.5933C25.785 52.5936 25.785 52.594 25.785 52.5944C25.785 52.5947 25.785 52.5951 25.785 52.5955C25.785 52.5958 25.785 52.5962 25.785 52.5966C25.785 52.5969 25.785 52.5973 25.785 52.5977C25.785 52.598 25.785 52.5984 25.785 52.5988C25.785 52.5991 25.785 52.5995 25.785 52.5998C25.785 52.6002 25.785 52.6006 25.785 52.6009C25.785 52.6013 25.785 52.6017 25.785 52.602C25.785 52.6024 25.785 52.6028 25.785 52.6031C25.785 52.6035 25.785 52.6039 25.785 52.6042C25.785 52.6046 25.785 52.6049 25.785 52.6053C25.785 52.6057 25.785 52.606 25.785 52.6064C25.785 52.6068 25.785 52.6071 25.785 52.6075C25.785 52.6079 25.785 52.6082 25.785 52.6086C25.785 52.609 25.785 52.6093 25.785 52.6097C25.785 52.6101 25.785 52.6104 25.785 52.6108C25.785 52.6111 25.785 52.6115 25.785 52.6119C25.785 52.6122 25.785 52.6126 25.785 52.613C25.785 52.6133 25.785 52.6137 25.785 52.6141C25.785 52.6144 25.785 52.6148 25.785 52.6152C25.785 52.6155 25.785 52.6159 25.785 52.6162C25.785 52.6166 25.785 52.617 25.785 52.6173C25.785 52.6177 25.785 52.6181 25.785 52.6184C25.785 52.6188 25.785 52.6192 25.785 52.6195C25.785 52.6199 25.785 52.6203 25.785 52.6206C25.785 52.621 25.785 52.6214 25.785 52.6217C25.785 52.6221 25.785 52.6224 25.785 52.6228C25.785 52.6232 25.785 52.6235 25.785 52.6239C25.785 52.6243 25.785 52.6246 25.785 52.625C25.785 52.6254 25.785 52.6257 25.785 52.6261C25.785 52.6265 25.785 52.6268 25.785 52.6272C25.785 52.6276 25.785 52.6279 25.785 52.6283C25.785 52.6286 25.785 52.629 25.785 52.6294C25.785 52.6297 25.785 52.6301 25.785 52.6305C25.785 52.6308 25.785 52.6312 25.785 52.6316C25.785 52.6319 25.785 52.6323 25.785 52.6327C25.785 52.633 25.785 52.6334 25.785 52.6338C25.785 52.6341 25.785 52.6345 25.785 52.6348C25.785 52.6352 25.785 52.6356 25.785 52.6359C25.785 52.6363 25.785 52.6367 25.785 52.637C25.785 52.6374 25.785 52.6378 25.785 52.6381C25.785 52.6385 25.785 52.6389 25.785 52.6392C25.785 52.6396 25.785 52.6399 25.785 52.6403C25.785 52.6407 25.785 52.641 25.785 52.6414C25.785 52.6418 25.785 52.6421 25.785 52.6425C25.785 52.6429 25.785 52.6432 25.785 52.6436C25.785 52.644 25.785 52.6443 25.785 52.6447C25.785 52.6451 25.785 52.6454 25.785 52.6458C25.785 52.6461 25.785 52.6465 25.785 52.6469C25.785 52.6472 25.785 52.6476 25.785 52.648C25.785 52.6483 25.785 52.6487 25.785 52.6491C25.785 52.6494 25.785 52.6498 25.785 52.6502C25.785 52.6505 25.785 52.6509 25.785 52.6512C25.785 52.6516 25.785 52.652 25.785 52.6523C25.785 52.6527 25.785 52.6531 25.785 52.6534C25.785 52.6538 25.785 52.6542 25.785 52.6545C25.785 52.6549 25.785 52.6553 25.785 52.6556C25.785 52.656 25.785 52.6564 25.785 52.6567C25.785 52.6571 25.785 52.6574 25.785 52.6578C25.785 52.6582 25.785 52.6585 25.785 52.6589C25.785 52.6593 25.785 52.6596 25.785 52.66C25.785 52.6604 25.785 52.6607 25.785 52.6611C25.785 52.6615 25.785 52.6618 25.785 52.6622C25.785 52.6626 25.785 52.6629 25.785 52.6633C25.785 52.6636 25.785 52.664 25.785 52.6644C25.785 52.6647 25.785 52.6651 25.785 52.6655C25.785 52.6658 25.785 52.6662 25.785 52.6666C25.785 52.6669 25.785 52.6673 25.785 52.6677C25.785 52.668 25.785 52.6684 25.785 52.6688C25.785 52.6691 25.785 52.6695 25.785 52.6698C25.785 52.6702 25.785 52.6706 25.785 52.6709C25.785 52.6713 25.785 52.6717 25.785 52.672C25.785 52.6724 25.785 52.6728 25.785 52.6731C25.785 52.6735 25.785 52.6739 25.785 52.6742C25.785 52.6746 25.785 52.6749 25.785 52.6753C25.785 52.6757 25.785 52.676 25.785 52.6764C25.785 52.6768 25.785 52.6771 25.785 52.6775C25.785 52.6779 25.785 52.6782 25.785 52.6786C25.785 52.679 25.785 52.6793 25.785 52.6797C25.785 52.68 25.785 52.6804 25.785 52.6808C25.785 52.6811 25.785 52.6815 25.785 52.6819C25.785 52.6822 25.785 52.6826 25.785 52.683C25.785 52.6833 25.785 52.6837 25.785 52.6841C25.785 52.6844 25.785 52.6848 25.785 52.6852C25.785 52.6855 25.785 52.6859 25.785 52.6862C25.785 52.6866 25.785 52.687 25.785 52.6873C25.785 52.6877 25.785 52.6881 25.785 52.6884C25.785 52.6888 25.785 52.6892 25.785 52.6895C25.785 52.6899 25.785 52.6903 25.785 52.6906C25.785 52.691 25.785 52.6914 25.785 52.6917C25.785 52.6921 25.785 52.6924 25.785 52.6928C25.785 52.6932 25.785 52.6935 25.785 52.6939C25.785 52.6943 25.785 52.6946 25.785 52.695C25.785 52.6954 25.785 52.6957 25.785 52.6961C25.785 52.6965 25.785 52.6968 25.785 52.6972C25.785 52.6976 25.785 52.6979 25.785 52.6983C25.785 52.6986 25.785 52.699 25.785 52.6994C25.785 52.6997 25.785 52.7001 25.785 52.7005C25.785 52.7008 25.785 52.7012 25.785 52.7016C25.785 52.7019 25.785 52.7023 25.785 52.7027C25.785 52.703 25.785 52.7034 25.785 52.7038C25.785 52.7041 25.785 52.7045 25.785 52.7048C25.785 52.7052 25.785 52.7056 25.785 52.7059C25.785 52.7063 25.785 52.7067 25.785 52.707C25.785 52.7074 25.785 52.7078 25.785 52.7081C25.785 52.7085 25.785 52.7089 25.785 52.7092C25.785 52.7096 25.785 52.7099 25.785 52.7103C25.785 52.7107 25.785 52.711 25.785 52.7114C25.785 52.7118 25.785 52.7121 25.785 52.7125C25.785 52.7129 25.785 52.7132 25.785 52.7136C25.785 52.714 25.785 52.7143 25.785 52.7147C25.785 52.715 25.785 52.7154 25.785 52.7158C25.785 52.7161 25.785 52.7165 25.785 52.7169C25.785 52.7172 25.785 52.7176 25.785 52.718C25.785 52.7183 25.785 52.7187 25.785 52.7191C25.785 52.7194 25.785 52.7198 25.785 52.7202C25.785 52.7205 25.785 52.7209 25.785 52.7212C25.785 52.7216 25.785 52.722 25.785 52.7223C25.785 52.7227 25.785 52.7231 25.785 52.7234C25.785 52.7238 25.785 52.7242 25.785 52.7245C25.785 52.7249 25.785 52.7253 25.785 52.7256C25.785 52.726 25.785 52.7264 25.785 52.7267C25.785 52.7271 25.785 52.7274 25.785 52.7278C25.785 52.7282 25.785 52.7285 25.785 52.7289C25.785 52.7293 25.785 52.7296 25.785 52.73C25.785 52.7304 25.785 52.7307 25.785 52.7311C25.785 52.7315 25.785 52.7318 25.785 52.7322C25.785 52.7326 25.785 52.7329 25.785 52.7333C25.785 52.7336 25.785 52.734 25.785 52.7344C25.785 52.7347 25.785 52.7351 25.785 52.7355C25.785 52.7358 25.785 52.7362 25.785 52.7366C25.785 52.7369 25.785 52.7373 25.785 52.7377C25.785 52.738 25.785 52.7384 25.785 52.7388C25.785 52.7391 25.785 52.7395 25.785 52.7398C25.785 52.7402 25.785 52.7406 25.785 52.7409C25.785 52.7413 25.785 52.7417 25.785 52.742C25.785 52.7424 25.785 52.7428 25.785 52.7431C25.785 52.7435 25.785 52.7439 25.785 52.7442C25.785 52.7446 25.785 52.7449 25.785 52.7453C25.785 52.7457 25.785 52.746 25.785 52.7464C25.785 52.7468 25.785 52.7471 25.785 52.7475C25.785 52.7479 25.785 52.7482 25.785 52.7486C25.785 52.749 25.785 52.7493 25.785 52.7497C25.785 52.7501 25.785 52.7504 25.785 52.7508C25.785 52.7511 25.785 52.7515 25.785 52.7519C25.785 52.7522 25.785 52.7526 25.785 52.753C25.785 52.7533 25.785 52.7537 25.785 52.7541C25.785 52.7544 25.785 52.7548 25.785 52.7552C25.785 52.7555 25.785 52.7559 25.785 52.7562C25.785 52.7566 25.785 52.757 25.785 52.7573C25.785 52.7577 25.785 52.7581 25.785 52.7584C25.785 52.7588 25.785 52.7592 25.785 52.7595C25.785 52.7599 25.785 52.7603 25.785 52.7606C25.785 52.761 25.785 52.7614 25.785 52.7617C25.785 52.7621 25.785 52.7624 25.785 52.7628C25.785 52.7632 25.785 52.7635 25.785 52.7639C25.785 52.7643 25.785 52.7646 25.785 52.765C25.785 52.7654 25.785 52.7657 25.785 52.7661C25.785 52.7665 25.785 52.7668 25.785 52.7672C25.785 52.7676 25.785 52.7679 25.785 52.7683C25.785 52.7686 25.785 52.769 25.785 52.7694C25.785 52.7697 25.785 52.7701 25.785 52.7705C25.785 52.7708 25.785 52.7712 25.785 52.7716C25.785 52.7719 25.785 52.7723 25.785 52.7727C25.785 52.773 25.785 52.7734 25.785 52.7738C25.785 52.7741 25.785 52.7745 25.785 52.7748C25.785 52.7752 25.785 52.7756 25.785 52.7759C25.785 52.7763 25.785 52.7767 25.785 52.777C25.785 52.7774 25.785 52.7778 25.785 52.7781C25.785 52.7785 25.785 52.7789 25.785 52.7792C25.785 52.7796 25.785 52.7799 25.785 52.7803C25.785 52.7807 25.785 52.781 25.785 52.7814C25.785 52.7818 25.785 52.7821 25.785 52.7825C25.785 52.7829 25.785 52.7832 25.785 52.7836C25.785 52.784 25.785 52.7843 25.785 52.7847C25.785 52.7851 25.785 52.7854 25.785 52.7858C25.785 52.7861 25.785 52.7865 25.785 52.7869C25.785 52.7872 25.785 52.7876 25.785 52.788C25.785 52.7883 25.785 52.7887 25.785 52.7891C25.785 52.7894 25.785 52.7898 25.785 52.7902C25.785 52.7905 25.785 52.7909 25.785 52.7912C25.785 52.7916 25.785 52.792 25.785 52.7923C25.785 52.7927 25.785 52.7931 25.785 52.7934C25.785 52.7938 25.785 52.7942 25.785 52.7945C25.785 52.7949 25.785 52.7953 25.785 52.7956C25.785 52.796 25.785 52.7964 25.785 52.7967C25.785 52.7971 25.785 52.7974 25.785 52.7978C25.785 52.7982 25.785 52.7985 25.785 52.7989C25.785 52.7993 25.785 52.7996 25.785 52.8C25.785 52.8004 25.785 52.8007 25.785 52.8011C25.785 52.8015 25.785 52.8018 25.785 52.8022C25.785 52.8026 25.785 52.8029 25.785 52.8033C25.785 52.8036 25.785 52.804 25.785 52.8044C25.785 52.8047 25.785 52.8051 25.785 52.8055C25.785 52.8058 25.785 52.8062 25.785 52.8066C25.785 52.8069 25.785 52.8073 25.785 52.8077C25.785 52.808 25.785 52.8084 25.785 52.8088C25.785 52.8091 25.785 52.8095 25.785 52.8098C25.785 52.8102 25.785 52.8106 25.785 52.8109C25.785 52.8113 25.785 52.8117 25.785 52.812C25.785 52.8124 25.785 52.8128 25.785 52.8131C25.785 52.8135 25.785 52.8139 25.785 52.8142C25.785 52.8146 25.785 52.8149 25.785 52.8153C25.785 52.8157 25.785 52.816 25.785 52.8164C25.785 52.8168 25.785 52.8171 25.785 52.8175C25.785 52.8179 25.785 52.8182 25.785 52.8186C25.785 52.819 25.785 52.8193 25.785 52.8197C25.785 52.8201 25.785 52.8204 25.785 52.8208C25.785 52.8211 25.785 52.8215 25.785 52.8219C25.785 52.8222 25.785 52.8226 25.785 52.823C25.785 52.8233 25.785 52.8237 25.785 52.8241C25.785 52.8244 25.785 52.8248 25.785 52.8252C25.785 52.8255 25.785 52.8259 25.785 52.8262C25.785 52.8266 25.785 52.827 25.785 52.8273C25.785 52.8277 25.785 52.8281 25.785 52.8284C25.785 52.8288 25.785 52.8292 25.785 52.8295C25.785 52.8299 25.785 52.8303 25.785 52.8306C25.785 52.831 25.785 52.8314 25.785 52.8317C25.785 52.8321 25.785 52.8324 25.785 52.8328C25.785 52.8332 25.785 52.8335 25.785 52.8339C25.785 52.8343 25.785 52.8346 25.785 52.835C25.785 52.8354 25.785 52.8357 25.785 52.8361C25.785 52.8365 25.785 52.8368 25.785 52.8372C25.785 52.8376 25.785 52.8379 25.785 52.8383C25.785 52.8386 25.785 52.839 25.785 52.8394C25.785 52.8397 25.785 52.8401 25.785 52.8405C25.785 52.8408 25.785 52.8412 25.785 52.8416C25.785 52.8419 25.785 52.8423 25.785 52.8427C25.785 52.843 25.785 52.8434 25.785 52.8438C25.785 52.8441 25.785 52.8445 25.785 52.8448C25.785 52.8452 25.785 52.8456 25.785 52.8459C25.785 52.8463 25.785 52.8467 25.785 52.847C25.785 52.8474 25.785 52.8478 25.785 52.8481C25.785 52.8485 25.785 52.8489 25.785 52.8492C25.785 52.8496 25.785 52.8499 25.785 52.8503C25.785 52.8507 25.785 52.851 25.785 52.8514C25.785 52.8518 25.785 52.8521 25.785 52.8525C25.785 52.8529 25.785 52.8532 25.785 52.8536C25.785 52.854 25.785 52.8543 25.785 52.8547C25.785 52.8551 25.785 52.8554 25.785 52.8558C25.785 52.8561 25.785 52.8565 25.785 52.8569C25.785 52.8572 25.785 52.8576 25.785 52.858C25.785 52.8583 25.785 52.8587 25.785 52.8591C25.785 52.8594 25.785 52.8598 25.785 52.8602C25.785 52.8605 25.785 52.8609 25.785 52.8612C25.785 52.8616 25.785 52.862 25.785 52.8623C25.785 52.8627 25.785 52.8631 25.785 52.8634C25.785 52.8638 25.785 52.8642 25.785 52.8645C25.785 52.8649 25.785 52.8653 25.785 52.8656C25.785 52.866 25.785 52.8664 25.785 52.8667C25.785 52.8671 25.785 52.8674 25.785 52.8678C25.785 52.8682 25.785 52.8685 25.785 52.8689C25.785 52.8693 25.785 52.8696 25.785 52.87C25.785 52.8704 25.785 52.8707 25.785 52.8711C25.785 52.8715 25.785 52.8718 25.785 52.8722C25.785 52.8726 25.785 52.8729 25.785 52.8733C25.785 52.8736 25.785 52.874 25.785 52.8744C25.785 52.8747 25.785 52.8751 25.785 52.8755C25.785 52.8758 25.785 52.8762 25.785 52.8766C25.785 52.8769 25.785 52.8773 25.785 52.8777C25.785 52.878 25.785 52.8784 25.785 52.8787C25.785 52.8791 25.785 52.8795 25.785 52.8798C25.785 52.8802 25.785 52.8806 25.785 52.8809C25.785 52.8813 25.785 52.8817 25.785 52.882C25.785 52.8824 25.785 52.8828 25.785 52.8831C25.785 52.8835 25.785 52.8839 25.785 52.8842C25.785 52.8846 25.785 52.8849 25.785 52.8853C25.785 52.8857 25.785 52.886 25.785 52.8864C25.785 52.8868 25.785 52.8871 25.785 52.8875C25.785 52.8879 25.785 52.8882 25.785 52.8886C25.785 52.889 25.785 52.8893 25.785 52.8897C25.785 52.8901 25.785 52.8904 25.785 52.8908C25.785 52.8911 25.785 52.8915 25.785 52.8919C25.785 52.8922 25.785 52.8926 25.785 52.893C25.785 52.8933 25.785 52.8937 25.785 52.8941C25.785 52.8944 25.785 52.8948 25.785 52.8952C25.785 52.8955 25.785 52.8959 25.785 52.8963C25.785 52.8966 25.785 52.897 25.785 52.8973C25.785 52.8977 25.785 52.8981 25.785 52.8984C25.785 52.8988 25.785 52.8992 25.785 52.8995C25.785 52.8999 25.785 52.9003 25.785 52.9006C25.785 52.901 25.785 52.9014 25.785 52.9017C25.785 52.9021 25.785 52.9024 25.785 52.9028C25.785 52.9032 25.785 52.9035 25.785 52.9039C25.785 52.9043 25.785 52.9046 25.785 52.905C25.785 52.9054 25.785 52.9057 25.785 52.9061C25.785 52.9065 25.785 52.9068 25.785 52.9072C25.785 52.9076 25.785 52.9079 25.785 52.9083C25.785 52.9086 25.785 52.909 25.785 52.9094C25.785 52.9097 25.785 52.9101 25.785 52.9105C25.785 52.9108 25.785 52.9112 25.785 52.9116C25.785 52.9119 25.785 52.9123 25.785 52.9127C25.785 52.913 25.785 52.9134 25.785 52.9137C25.785 52.9141 25.785 52.9145 25.785 52.9148C25.785 52.9152 25.785 52.9156 25.785 52.9159C25.785 52.9163 25.785 52.9167 25.785 52.917C25.785 52.9174 25.785 52.9178 25.785 52.9181C25.785 52.9185 25.785 52.9189 25.785 52.9192C25.785 52.9196 25.785 52.9199 25.785 52.9203C25.785 52.9207 25.785 52.921 25.785 52.9214C25.785 52.9218 25.785 52.9221 25.785 52.9225C25.785 52.9229 25.785 52.9232 25.785 52.9236C25.785 52.924 25.785 52.9243 25.785 52.9247C25.785 52.9251 25.785 52.9254 25.785 52.9258C25.785 52.9261 25.785 52.9265 25.785 52.9269C25.785 52.9272 25.785 52.9276 25.785 52.928C25.785 52.9283 25.785 52.9287 25.785 52.9291C25.785 52.9294 25.785 52.9298 25.785 52.9302C25.785 52.9305 25.785 52.9309 25.785 52.9313C25.785 52.9316 25.785 52.932 25.785 52.9323C25.785 52.9327 25.785 52.9331 25.785 52.9334C25.785 52.9338 25.785 52.9342 25.785 52.9345C25.785 52.9349 25.785 52.9353 25.785 52.9356C25.785 52.936 25.785 52.9364 25.785 52.9367C25.785 52.9371 25.785 52.9374 25.785 52.9378C25.785 52.9382 25.785 52.9385 25.785 52.9389C25.785 52.9393 25.785 52.9396 25.785 52.94C25.785 52.9404 25.785 52.9407 25.785 52.9411C25.785 52.9415 25.785 52.9418 25.785 52.9422C25.785 52.9426 25.785 52.9429 25.785 52.9433C25.785 52.9436 25.785 52.944 25.785 52.9444C25.785 52.9447 25.785 52.9451 25.785 52.9455C25.785 52.9458 25.785 52.9462 25.785 52.9466C25.785 52.9469 25.785 52.9473 25.785 52.9477C25.785 52.948 25.785 52.9484 25.785 52.9487C25.785 52.9491 25.785 52.9495 25.785 52.9498C25.785 52.9502 25.785 52.9506 25.785 52.9509C25.785 52.9513 25.785 52.9517 25.785 52.952C25.785 52.9524 25.785 52.9528 25.785 52.9531C25.785 52.9535 25.785 52.9539 25.785 52.9542C25.785 52.9546 25.785 52.9549 25.785 52.9553C25.785 52.9557 25.785 52.956 25.785 52.9564C25.785 52.9568 25.785 52.9571 25.785 52.9575C25.785 52.9579 25.785 52.9582 25.785 52.9586C25.785 52.959 25.785 52.9593 25.785 52.9597C25.785 52.9601 25.785 52.9604 25.785 52.9608C25.785 52.9611 25.785 52.9615 25.785 52.9619C25.785 52.9622 25.785 52.9626 25.785 52.963C25.785 52.9633 25.785 52.9637 25.785 52.9641C25.785 52.9644 25.785 52.9648 25.785 52.9652C25.785 52.9655 25.785 52.9659 25.785 52.9663C25.785 52.9666 25.785 52.967 25.785 52.9673C25.785 52.9677 25.785 52.9681 25.785 52.9684C25.785 52.9688 25.785 52.9692 25.785 52.9695C25.785 52.9699 25.785 52.9703 25.785 52.9706C25.785 52.971 25.785 52.9714 25.785 52.9717C25.785 52.9721 25.785 52.9724 25.785 52.9728C25.785 52.9732 25.785 52.9735 25.785 52.9739C25.785 52.9743 25.785 52.9746 25.785 52.975C25.785 52.9754 25.785 52.9757 25.785 52.9761C25.785 52.9765 25.785 52.9768 25.785 52.9772C25.785 52.9776 25.785 52.9779 25.785 52.9783C25.785 52.9786 25.785 52.979 25.785 52.9794C25.785 52.9797 25.785 52.9801 25.785 52.9805C25.785 52.9808 25.785 52.9812 25.785 52.9816C25.785 52.9819 25.785 52.9823 25.785 52.9827C25.785 52.983 25.785 52.9834 25.785 52.9837C25.785 52.9841 25.785 52.9845 25.785 52.9848C25.785 52.9852 25.785 52.9856 25.785 52.9859C25.785 52.9863 25.785 52.9867 25.785 52.987C25.785 52.9874 25.785 52.9878 25.785 52.9881C25.785 52.9885 25.785 52.9889 25.785 52.9892C25.785 52.9896 25.785 52.9899 25.785 52.9903C25.785 52.9907 25.785 52.991 25.785 52.9914C25.785 52.9918 25.785 52.9921 25.785 52.9925C25.785 52.9929 25.785 52.9932 25.785 52.9936C25.785 52.994 25.785 52.9943 25.785 52.9947C25.785 52.9951 25.785 52.9954 25.785 52.9958C25.785 52.9961 25.785 52.9965 25.785 52.9969C25.785 52.9972 25.785 52.9976 25.785 52.998C25.785 52.9983 25.785 52.9987 25.785 52.9991C25.785 52.9994 25.785 52.9998 25.785 53.0002C25.785 53.0005 25.785 53.0009 25.785 53.0013C25.785 53.0016 25.785 53.002 25.785 53.0023C25.785 53.0027 25.785 53.0031 25.785 53.0034C25.785 53.0038 25.785 53.0042 25.785 53.0045C25.785 53.0049 25.785 53.0053 25.785 53.0056C25.785 53.006 25.785 53.0064 25.785 53.0067C25.785 53.0071 25.785 53.0074 25.785 53.0078C25.785 53.0082 25.785 53.0085 25.785 53.0089C25.785 53.0093 25.785 53.0096 25.785 53.01H28.285ZM28.285 52.45H30.785C30.785 52.0539 30.7457 51.6353 30.6403 51.2136L28.215 51.82L25.7896 52.4263C25.7833 52.4011 25.7823 52.3892 25.7828 52.3936C25.7832 52.398 25.785 52.4162 25.785 52.45H28.285ZM28.215 51.82L30.5867 51.0294C30.5875 51.032 30.5955 51.0562 30.6048 51.0993C30.6139 51.1417 30.6269 51.2151 30.6324 51.3138C30.6427 51.4994 30.6312 51.8777 30.416 52.308C30.1794 52.7812 29.7963 53.1167 29.3939 53.3024C29.0379 53.4667 28.7458 53.48 28.635 53.48V50.98V48.48C27.9748 48.48 26.6284 48.7029 25.9439 50.072C25.405 51.1498 25.7061 52.1992 25.8433 52.6106L28.215 51.82ZM28.635 50.98V53.48C28.4578 53.48 28.1978 53.4467 27.9117 53.312C27.6177 53.1737 27.3886 52.9716 27.23 52.76C26.9498 52.3864 26.9702 52.1016 26.9798 52.2559L29.475 52.1L31.9701 51.9441C31.9331 51.3517 31.7901 50.5069 31.23 49.76C30.5659 48.8745 29.5877 48.48 28.635 48.48V50.98ZM29.475 52.1L27.0496 52.7063C27.0491 52.7043 27.0479 52.6988 27.0468 52.6901C27.0457 52.6814 27.045 52.6711 27.045 52.66H29.545H32.045C32.045 52.2627 31.995 51.8725 31.9003 51.4937L29.475 52.1ZM29.545 52.66L27.1196 53.2663C27.1133 53.2411 27.1123 53.2292 27.1128 53.2336C27.1132 53.238 27.115 53.2562 27.115 53.29H29.615H32.115C32.115 52.8939 32.0757 52.4753 31.9703 52.0536L29.545 52.66ZM29.615 53.29H27.115C27.115 54.3658 26.7711 55.3995 25.9582 56.4496L27.935 57.98L29.9118 59.5104C31.3389 57.6671 32.115 55.5742 32.115 53.29H29.615ZM27.935 57.98L25.9582 56.4496C25.0772 57.5874 23.9179 58.5549 22.4306 59.3377L23.595 61.55L24.7593 63.7623C26.8186 62.6784 28.5527 61.2659 29.9118 59.5104L27.935 57.98ZM23.595 61.55L22.4529 59.3261C21.0651 60.0388 19.6584 60.38 18.205 60.38V62.88V65.38C20.4849 65.38 22.6715 64.8346 24.737 63.7739L23.595 61.55ZM18.205 62.88V60.38C16.7167 60.38 15.2712 60.0213 13.8393 59.2677L12.675 61.48L11.5106 63.6923C13.6254 64.8053 15.8665 65.38 18.205 65.38V62.88ZM12.675 61.48L13.8683 59.2832C11.0558 57.7554 9.50496 55.1409 9.50496 50.77H7.00496H4.50496C4.50496 56.5724 6.73415 61.0979 11.4816 63.6768L12.675 61.48ZM7.00496 50.77H9.50496C9.50496 47.6022 10.3522 44.5053 12.1119 41.4467L9.94496 40.2L7.77802 38.9533C5.61777 42.708 4.50496 46.6578 4.50496 50.77H7.00496ZM9.94496 40.2L12.1115 41.4474C13.7256 38.644 15.8293 36.1966 18.4406 34.0991L16.875 32.15L15.3093 30.2009C12.2273 32.6767 9.71099 35.596 7.7784 38.9526L9.94496 40.2ZM16.875 32.15L18.4406 34.0991C21.0784 31.9801 23.9695 30.3408 27.1222 29.1748L26.255 26.83L25.3877 24.4852C21.7271 25.8392 18.3648 27.7465 15.3093 30.2009L16.875 32.15ZM26.255 26.83L27.1503 29.1642C30.2958 27.9577 33.3764 27.37 36.405 27.37V24.87V22.37C32.7136 22.37 29.0275 23.089 25.3597 24.4958L26.255 26.83ZM36.405 24.87V27.37C38.4706 27.37 40.2486 27.7 41.7765 28.3112L42.705 25.99L43.6334 23.6688C41.428 22.7866 39.006 22.37 36.405 22.37V24.87ZM42.705 25.99L41.8272 28.3308C43.2717 28.8725 44.3244 29.681 45.0849 30.7391L47.115 29.28L49.145 27.8209C47.7588 25.8923 45.8716 24.5075 43.5828 23.6492L42.705 25.99ZM47.115 29.28L45.1382 30.8104C45.8417 31.7192 46.295 33.0063 46.295 34.88H48.795H51.295C51.295 32.1804 50.6282 29.7341 49.0918 27.7496L47.115 29.28ZM48.795 34.88H46.295C46.295 38.6426 44.5442 44.7284 40.6365 53.381L42.915 54.41L45.1934 55.439C49.1258 46.7316 51.295 39.7974 51.295 34.88H48.795ZM42.915 54.41L40.6394 53.3747C38.3945 58.3088 36.6975 62.1903 35.5578 65.0039C34.9892 66.4076 34.5468 67.5764 34.2424 68.4925C34.0906 68.9496 33.9632 69.3733 33.8714 69.7494C33.7896 70.0841 33.695 70.5396 33.695 71H36.195H38.695C38.695 71.157 38.6703 71.1743 38.7286 70.9359C38.7767 70.7389 38.8593 70.4546 38.9875 70.0687C39.2432 69.299 39.6407 68.2424 40.1921 66.8811C41.2924 64.1647 42.9554 60.3578 45.1905 55.4453L42.915 54.41ZM36.195 71H33.695C33.695 71.2597 33.6996 72.2851 34.5147 73.1003C35.6232 74.2087 36.9822 73.8677 37.4734 73.6712L36.545 71.35L35.6165 69.0288C35.7658 68.9691 36.103 68.8558 36.5581 68.8862C37.0772 68.9208 37.6227 69.1373 38.0502 69.5647C38.4327 69.9472 38.5783 70.3556 38.6345 70.5694C38.6923 70.7889 38.695 70.9498 38.695 71H36.195ZM36.545 71.35L37.9131 73.4424C38.507 73.0541 39.2819 72.2804 40.0678 71.4534C40.9383 70.5374 42.0674 69.2868 43.4472 67.7132C46.2099 64.5625 50.035 60.0517 54.9161 54.1897L52.995 52.59L51.0738 50.9903C46.2015 56.8416 42.4084 61.3141 39.6878 64.4168C38.3259 65.9699 37.247 67.1635 36.4434 68.0091C36.0408 68.4327 35.7224 68.753 35.4818 68.9807C35.21 69.2379 35.1284 69.2893 35.1768 69.2576L36.545 71.35ZM52.995 52.59L54.9131 54.1934C59.8904 48.2391 64.0806 43.4483 67.4895 39.8091L65.665 38.1L63.8404 36.3909C60.3427 40.125 56.0861 44.9942 51.0769 50.9866L52.995 52.59ZM65.665 38.1L67.4888 39.8099C70.9693 36.0973 73.5865 33.656 75.387 32.3579L73.925 30.33L72.463 28.3021C70.2501 29.8974 67.3606 32.636 63.8411 36.3901L65.665 38.1ZM73.925 30.33L75.4416 32.3174C77.1825 30.9889 78.6651 29.9348 79.8969 29.1429L78.545 27.04L77.1931 24.9371C75.8115 25.8252 74.2141 26.9645 72.4083 28.3426L73.925 30.33ZM78.545 27.04L79.9487 29.1087C81.2375 28.2342 82.2367 27.5918 82.9625 27.1648L81.695 25.01L80.4274 22.8552C79.5666 23.3615 78.4658 24.0725 77.1412 24.9713L78.545 27.04ZM81.695 25.01L82.897 27.202C85.5487 25.7479 87.7926 25.13 89.675 25.13V22.63V20.13C86.704 20.13 83.6279 21.0988 80.4929 22.818L81.695 25.01ZM89.675 22.63V25.13C90.633 25.13 91.058 25.2438 91.1634 25.2877L92.125 22.98L93.0865 20.6723C92.0719 20.2496 90.8636 20.13 89.675 20.13V22.63ZM92.125 22.98L91.3897 25.3694C91.2555 25.3281 91.0938 25.2511 90.9373 25.1227C90.7809 24.9943 90.6748 24.8518 90.6092 24.7307C90.492 24.5142 90.535 24.4293 90.535 24.66H93.035H95.535C95.535 23.9574 95.4263 23.1258 95.0057 22.3493C94.5433 21.4957 93.7917 20.8772 92.8602 20.5905L92.125 22.98ZM93.035 24.66H90.535C90.535 24.7521 90.505 24.3773 90.822 23.9195C91.0017 23.6598 91.263 23.421 91.596 23.2606C91.917 23.1061 92.2091 23.07 92.405 23.07V25.57V28.07C93.3036 28.07 94.2907 27.6932 94.933 26.7655C95.4599 26.0043 95.535 25.1745 95.535 24.66H93.035ZM92.405 25.57V23.07C92.5194 23.07 92.6068 23.079 92.6538 23.0849C92.7042 23.0912 92.7395 23.0979 92.7553 23.101C92.7843 23.1069 92.7835 23.1081 92.7418 23.0962C92.7035 23.0852 92.6458 23.0676 92.5655 23.0408C92.4861 23.0143 92.3912 22.9812 92.2793 22.9405L91.425 25.29L90.5706 27.6395C90.8537 27.7424 91.1251 27.8344 91.3682 27.9038C91.5273 27.9493 91.9475 28.07 92.405 28.07V25.57ZM91.425 25.29L92.4595 23.0141C91.6535 22.6477 90.789 22.44 89.885 22.44V24.94V27.44C90.0076 27.44 90.1697 27.4656 90.3905 27.5659L91.425 25.29ZM89.885 24.94V22.44C86.913 22.44 83.9198 23.3106 80.9365 24.9052L82.115 27.11L83.2934 29.3148C85.7234 28.016 87.9102 27.44 89.885 27.44V24.94ZM82.115 27.11L80.9365 24.9052C75.175 27.9846 68.7506 33.3887 61.6711 40.9401L63.495 42.65L65.3188 44.3598C72.2393 36.978 78.2282 32.0221 83.2934 29.3148L82.115 27.11ZM63.495 42.65L61.6686 40.9428C59.6279 43.1259 57.2449 45.8163 54.5229 49.0076L56.425 50.63L58.327 52.2524C61.0184 49.097 63.3487 46.4674 65.3213 44.3572L63.495 42.65ZM56.425 50.63L54.509 49.024C51.8301 52.2199 48.8049 55.9489 45.4344 60.2088L47.395 61.76L49.3555 63.3112C52.7051 59.0778 55.6998 55.3868 58.3409 52.236L56.425 50.63ZM47.395 61.76L45.4348 60.2082C42.784 63.5566 40.6834 66.1165 39.1238 67.9038C38.3424 68.7993 37.7175 69.4769 37.2403 69.9541C36.7019 70.4925 36.514 70.608 36.5748 70.5736L37.805 72.75L39.0351 74.9264C39.6326 74.5887 40.2467 74.0187 40.7759 73.4896C41.3662 72.8993 42.0742 72.1274 42.8911 71.1912C44.5282 69.3152 46.6859 66.6834 49.3551 63.3118L47.395 61.76ZM37.805 72.75L36.5484 70.5887C34.5552 71.7476 33.1277 72.5117 32.2205 72.9241L33.255 75.2L34.2895 77.4759C35.4355 76.955 37.0414 76.0858 39.0615 74.9113L37.805 72.75ZM33.255 75.2L32.0949 72.9854C31.6185 73.235 31.2788 73.4038 31.0583 73.5048C30.9448 73.5569 30.8978 73.5748 30.8981 73.5747C30.9008 73.5737 30.9114 73.5698 30.9285 73.5643C30.9449 73.559 30.9742 73.5499 31.0138 73.5395C31.0515 73.5296 31.1142 73.5145 31.1951 73.501C31.2703 73.4885 31.4042 73.47 31.575 73.47V75.97V78.47C32.1139 78.47 32.5694 78.2874 32.6193 78.2691C32.7946 78.2048 32.9751 78.1265 33.1416 78.0502C33.4811 77.8946 33.9114 77.6784 34.415 77.4146L33.255 75.2Z" fill="#EF6F00" mask="url(#path-2-outside-1_1_2)"/>
</g>
</g>
<defs>
<filter id="filter0_d_1_2" x="4.50496" y="20.13" width="92.03" height="60.34" filterUnits="userSpaceOnUse" color-interpolation-filters="sRGB">
<feFlood flood-opacity="0" result="BackgroundImageFix"/>
<feColorMatrix in="SourceAlpha" type="matrix" values="0 0 0 0 0 0 0 0 0 0 0 0 0 0 0 0 0 0 127 0" result="hardAlpha"/>
<feOffset dx="1" dy="2"/>
<feComposite in2="hardAlpha" operator="out"/>
<feColorMatrix type="matrix" values="0 0 0 0 0 0 0 0 0 0 0 0 0 0 0 0 0 0 0.25 0"/>
<feBlend mode="normal" in2="BackgroundImageFix" result="effect1_dropShadow_1_2"/>
<feBlend mode="normal" in="SourceGraphic" in2="effect1_dropShadow_1_2" result="shape"/>
</filter>
<clipPath id="clip0_1_2">
<rect width="100" height="100" rx="14" fill="white"/>
</clipPath>
</defs>
</svg>
