<svg width="1537" height="129" viewBox="0 0 1537 129" fill="none" xmlns="http://www.w3.org/2000/svg">
<path d="M28.9777 64.4059L29.6798 66.0719L31.4806 66.2301L43.9503 67.3219L34.5226 75.4674L33.1515 76.6529L33.5626 78.4185L36.3849 90.5445L25.7032 84.11L24.1554 83.1773L22.6075 84.11L11.9249 90.5445L14.7482 78.4185L15.1593 76.6529L13.7872 75.4674L4.35852 67.3219L16.8302 66.2301L18.631 66.0719L19.3331 64.4059L24.1544 52.9605L28.9777 64.4059Z" fill="white" stroke="#000" stroke-width="6"/>
<path d="M61.4644 42.8137C61.5245 42.7979 61.6356 42.7794 61.8567 42.8387C61.8589 42.8393 61.8607 42.8398 61.8622 42.8403C61.8634 42.8411 61.8702 42.8454 61.8816 42.8564C61.8944 42.8687 61.9161 42.8909 61.9436 42.9269L61.9503 42.9372L72.1547 56.1878L73.2579 57.6201L75.0394 57.3136L91.5453 54.4793C91.7355 54.4605 91.8412 54.4691 91.8847 54.4758C91.9393 54.5083 92.0219 54.5727 92.1268 54.7241C92.187 54.8109 92.2114 54.8797 92.2164 54.9954L92.2169 54.9972L92.2124 55.0146C92.2058 55.0365 92.1826 55.1006 92.112 55.2087L82.636 69.0362L81.6119 70.5318L82.4579 72.1339L90.3062 86.9833L90.3065 86.9843C90.3313 87.0315 90.345 87.0661 90.353 87.0882C90.3116 87.2748 90.2436 87.4197 90.1421 87.5527C90.1161 87.5867 90.0805 87.629 89.9418 87.6781C89.9356 87.6803 89.9325 87.6816 89.9317 87.6818L89.7989 87.6531L89.7285 87.6313L73.6246 82.9182L71.8903 82.4104L70.6309 83.7064L58.9353 95.7392L58.8848 95.7929C58.8209 95.8619 58.7852 95.8822 58.7833 95.8832C58.7821 95.8836 58.779 95.8838 58.7737 95.8848C58.6284 95.9103 58.576 95.8913 58.5367 95.8745C58.3824 95.8086 58.2514 95.7161 58.1231 95.5734C58.1194 95.551 58.116 95.5161 58.1142 95.4666L57.6312 78.6708L57.5795 76.8596L55.9508 76.0625L40.8939 68.6945C40.7791 68.6351 40.7273 68.5908 40.7109 68.5751C40.7022 68.5667 40.6994 68.562 40.6994 68.562L40.6984 68.5622L40.6979 68.5603C40.6454 68.4572 40.6327 68.3852 40.6423 68.2801C40.6589 68.0989 40.6979 68.0017 40.7291 67.9462C40.7622 67.9198 40.8495 67.8595 41.0269 67.7809L56.7903 62.1187L58.4917 61.5081L58.7455 59.7184L61.1013 43.1608L61.1031 43.1482C61.1093 43.1035 61.1163 43.0736 61.1214 43.0565C61.1253 43.0432 61.1282 43.0358 61.1294 43.0332C61.1305 43.032 61.1331 43.0307 61.1352 43.0286C61.2986 42.8682 61.4044 42.8295 61.4644 42.8137Z" fill="white" stroke="#000" stroke-width="6"/>
<path d="M107.594 73.1554L107.389 74.9517L108.881 75.9719L116.639 81.2788L107.475 83.1365L105.699 83.4964L105.191 85.2367L102.575 94.2048L97.9565 86.0656L97.0641 84.4933L95.2578 84.5469L85.9028 84.8225L92.2118 77.9325L93.436 76.5954L92.8213 74.8902L89.6535 66.0927L98.2166 69.9703L99.863 70.7164L101.292 69.6089L108.652 63.9028L107.594 73.1554Z" fill="white" stroke="#000" stroke-width="6"/>
<path d="M125.598 17.8658C126.272 18.2584 126.813 18.8434 127.152 19.5458C127.491 20.2482 127.612 21.0359 127.5 21.8076C126.628 27.8842 127.299 34.0825 129.453 39.8311C136.579 58.9687 157.951 68.6558 177.179 61.4958C179.691 60.5569 182.028 59.3974 184.192 58.0174C184.854 57.5957 185.625 57.3775 186.41 57.3896C187.194 57.4018 187.958 57.6439 188.607 58.0859C189.289 58.5431 189.8 59.214 190.06 59.9932C190.32 60.7724 190.313 61.6158 190.042 62.3909C188.016 68.3661 184.683 73.8141 180.284 78.3375C175.886 82.861 170.534 86.3461 164.618 88.5388C142.677 96.7089 118.323 85.6502 110.214 63.8712C104.11 47.4799 108.936 29.6741 121.043 18.3808C121.643 17.812 122.413 17.4541 123.235 17.3612C124.056 17.2683 124.886 17.4454 125.598 17.8658ZM121.994 24.8062C117.586 29.8125 114.617 35.9193 113.402 42.4778C112.186 49.0363 112.771 55.8015 115.092 62.0546C122.216 81.1874 143.593 90.8727 162.821 83.7128C167.428 82.0052 171.65 79.4014 175.245 76.0518C178.839 72.7023 181.734 68.6735 183.762 64.1983C182.231 64.9961 180.636 65.7039 178.976 66.3218C157.035 74.492 132.686 63.4314 124.576 41.6525C122.508 36.0983 121.691 30.3817 121.994 24.8062Z" fill="#000"/>
<path d="M121.994 24.8062C117.586 29.8125 114.617 35.9193 113.402 42.4778C112.186 49.0363 112.771 55.8015 115.092 62.0546C122.216 81.1874 143.593 90.8727 162.821 83.7128C167.428 82.0052 171.65 79.4014 175.245 76.0518C178.839 72.7023 181.734 68.6735 183.762 64.1983C182.231 64.9961 180.636 65.7039 178.976 66.3218C157.035 74.492 132.686 63.4314 124.576 41.6525C122.508 36.0983 121.691 30.3817 121.994 24.8062Z" fill="white"/>
<path d="M125.598 17.8658C126.272 18.2584 126.813 18.8434 127.152 19.5458C127.491 20.2482 127.612 21.0359 127.5 21.8076C126.628 27.8842 127.299 34.0825 129.453 39.8311C136.579 58.9687 157.951 68.6558 177.179 61.4958C179.691 60.5569 182.028 59.3974 184.192 58.0174C184.854 57.5957 185.625 57.3775 186.41 57.3896C187.194 57.4018 187.958 57.6439 188.607 58.0859C189.289 58.5431 189.8 59.214 190.06 59.9932C190.32 60.7724 190.313 61.6158 190.042 62.3909C188.016 68.3661 184.683 73.8141 180.284 78.3375C175.886 82.861 170.534 86.3461 164.618 88.5388C142.677 96.7089 118.323 85.6502 110.214 63.8712C104.11 47.4799 108.936 29.6741 121.043 18.3808C121.643 17.812 122.413 17.4541 123.235 17.3612C124.056 17.2683 124.886 17.4454 125.598 17.8658ZM121.994 24.8062C117.586 29.8125 114.617 35.9193 113.402 42.4778C112.186 49.0363 112.771 55.8015 115.092 62.0546C122.216 81.1874 143.593 90.8727 162.821 83.7128C167.428 82.0052 171.65 79.4014 175.245 76.0518C178.839 72.7023 181.734 68.6735 183.762 64.1983C182.231 64.9961 180.636 65.7039 178.976 66.3218C157.035 74.492 132.686 63.4314 124.576 41.6525C122.508 36.0983 121.691 30.3817 121.994 24.8062Z" stroke="#000" stroke-width="2" stroke-linejoin="round"/>
<path d="M121.994 24.8062C117.586 29.8125 114.617 35.9193 113.402 42.4778C112.186 49.0363 112.771 55.8015 115.092 62.0546C122.216 81.1874 143.593 90.8727 162.821 83.7128C167.428 82.0052 171.65 79.4014 175.245 76.0518C178.839 72.7023 181.734 68.6735 183.762 64.1983C182.231 64.9961 180.636 65.7039 178.976 66.3218C157.035 74.492 132.686 63.4314 124.576 41.6525C122.508 36.0983 121.691 30.3817 121.994 24.8062Z" stroke="#000" stroke-width="2" stroke-linejoin="round"/>
<path d="M155.089 20.629C155.079 20.3782 155.149 20.131 155.289 19.9223C155.428 19.7137 155.63 19.5543 155.865 19.4667C156.1 19.3791 156.357 19.3679 156.598 19.4346C156.84 19.5013 157.055 19.6425 157.212 19.8382L161.437 25.0847C163.323 27.4225 166.195 28.7359 169.197 28.6334L175.929 28.3979C176.179 28.3887 176.427 28.4587 176.635 28.5981C176.844 28.7374 177.003 28.939 177.091 29.1741C177.179 29.4092 177.19 29.666 177.123 29.9078C177.056 30.1497 176.915 30.3644 176.719 30.5214L171.473 34.7464C170.318 35.6743 169.396 36.859 168.78 38.2061C168.164 39.5533 167.871 41.0257 167.924 42.506L168.16 49.2381C168.169 49.4888 168.099 49.736 167.96 49.9447C167.82 50.1533 167.619 50.3128 167.384 50.4003C167.148 50.4879 166.892 50.4991 166.65 50.4324C166.408 50.3657 166.193 50.2245 166.036 50.0288L161.811 44.7823C160.883 43.6276 159.699 42.7055 158.352 42.0894C157.004 41.4733 155.532 41.1802 154.052 41.2336L147.32 41.4691C147.069 41.4783 146.822 41.4083 146.613 41.2689C146.404 41.1296 146.245 40.928 146.157 40.6929C146.07 40.4578 146.059 40.201 146.125 39.9592C146.192 39.7173 146.333 39.5026 146.529 39.3456L151.775 35.1206C152.93 34.1927 153.852 33.0081 154.468 31.6609C155.084 30.3137 155.377 28.8414 155.324 27.361L155.089 20.629Z" fill="#000"/>
<path d="M212.299 65.3832L212.862 67.1013L214.643 67.406L225.712 69.303L216.684 75.8897L215.22 76.9575L215.484 78.7509L217.113 89.7992L208.038 83.2594L206.572 82.2027L204.953 83.0048L194.928 87.9688L198.346 77.3369L198.901 75.6111L197.632 74.3178L189.804 66.3405L201.035 66.2833L202.843 66.2747L203.68 64.6721L208.833 54.7977L212.299 65.3832Z" fill="white" stroke="#000" stroke-width="6"/>
<path d="M231.702 95.1972L232.415 96.1686L233.608 95.9923L240.267 95.0064L236.355 100.443L235.648 101.424L236.188 102.505L239.178 108.495L232.788 106.462L231.64 106.097L230.78 106.941L225.996 111.641L225.959 104.946L225.953 103.738L224.88 103.182L218.933 100.098L225.32 97.9704L226.464 97.589L226.661 96.4003L227.754 89.8165L231.702 95.1972Z" fill="white" stroke="#000" stroke-width="4"/>
<path d="M248.765 31.8547C248.77 31.8606 248.776 31.8678 248.782 31.8782L248.782 31.8791L257.403 46.7418L257.404 46.7427C259.534 50.4123 262.49 53.5357 266.037 55.8645C269.583 58.1932 273.624 59.6638 277.838 60.1598L294.892 62.1718C294.904 62.1733 294.914 62.1753 294.921 62.1768C294.924 62.1843 294.929 62.1932 294.932 62.2045C294.934 62.2152 294.933 62.2253 294.933 62.2332C294.927 62.2375 294.92 62.244 294.909 62.25L280.048 70.8708L280.047 70.871C276.377 73.0013 273.254 75.9571 270.925 79.5041C268.596 83.0508 267.126 87.0917 266.63 91.3055L264.618 108.36L264.616 108.374C264.615 108.382 264.611 108.389 264.606 108.395C264.6 108.401 264.593 108.405 264.586 108.407C264.578 108.409 264.569 108.407 264.562 108.404C264.555 108.401 264.549 108.395 264.545 108.389L264.538 108.377L255.919 93.5151L255.918 93.5141L255.509 92.8329C253.417 89.4582 250.612 86.5772 247.289 84.3936C243.743 82.0646 239.704 80.5929 235.492 80.0954L218.428 78.0844L218.415 78.083L218.394 78.0735C218.388 78.0682 218.384 78.0607 218.382 78.0529C218.381 78.0452 218.381 78.0368 218.384 78.0296C218.388 78.0223 218.394 78.0162 218.401 78.0122L218.411 78.006L233.274 69.386L233.274 69.3851C236.943 67.2558 240.066 64.3016 242.395 60.7562C244.578 57.4325 246.009 53.6754 246.589 49.7476L246.694 48.959L248.704 31.8963C248.706 31.8837 248.707 31.8738 248.709 31.8664C248.716 31.8633 248.726 31.8599 248.737 31.8576C248.748 31.8554 248.758 31.8549 248.765 31.8547Z" fill="white" stroke="#000" stroke-width="6"/>
<path d="M290.298 23.7752C290.651 23.2405 291.48 23.4627 291.519 24.1023L291.743 27.856C291.793 28.6812 292.034 29.4836 292.447 30.1994C292.861 30.9153 293.435 31.525 294.126 31.9802L297.263 34.0507C297.797 34.4037 297.575 35.2328 296.936 35.2712L293.182 35.4953C292.357 35.5449 291.554 35.786 290.838 36.1996C290.123 36.6132 289.513 37.1878 289.058 37.8779L286.987 41.0149C286.91 41.1321 286.799 41.2222 286.668 41.2722C286.537 41.3222 286.394 41.3296 286.258 41.2933C286.123 41.2571 286.003 41.179 285.914 41.0703C285.826 40.9616 285.774 40.8277 285.767 40.6878L285.542 36.9341C285.493 36.1091 285.252 35.307 284.839 34.5912C284.426 33.8754 283.851 33.2657 283.162 32.8104L280.023 30.7394C279.906 30.6628 279.816 30.5511 279.766 30.4202C279.716 30.2894 279.708 30.1461 279.744 30.0108C279.781 29.8754 279.859 29.755 279.968 29.6667C280.076 29.5784 280.21 29.5267 280.35 29.5189L284.104 29.2948C284.929 29.2453 285.731 29.0044 286.447 28.5912C287.162 28.1779 287.772 27.6037 288.227 26.914L290.298 23.7752Z" fill="#000"/>
<path d="M284.126 96.8909C284.129 96.4116 284.74 96.2125 285.025 96.5978L286.697 98.8598C287.065 99.3569 287.543 99.7616 288.095 100.042C288.646 100.322 289.255 100.469 289.874 100.473L292.685 100.491C293.165 100.494 293.364 101.105 292.978 101.39L290.717 103.062C290.219 103.43 289.815 103.909 289.535 104.46C289.255 105.011 289.107 105.621 289.103 106.239L289.085 109.051C289.085 109.155 289.052 109.257 288.99 109.342C288.928 109.427 288.842 109.49 288.742 109.523C288.642 109.555 288.535 109.555 288.435 109.523C288.336 109.491 288.249 109.428 288.187 109.344L286.514 107.082C286.147 106.585 285.668 106.18 285.117 105.9C284.566 105.62 283.957 105.472 283.339 105.468L280.526 105.45C280.421 105.45 280.319 105.417 280.234 105.355C280.149 105.294 280.086 105.207 280.054 105.107C280.021 105.008 280.021 104.9 280.053 104.8C280.085 104.701 280.148 104.614 280.233 104.552L282.495 102.879C282.992 102.512 283.396 102.033 283.676 101.482C283.956 100.931 284.104 100.322 284.108 99.7039L284.126 96.8909Z" fill="white"/>
<path d="M309.461 52.0568C310.08 51.0629 311.605 51.4282 311.706 52.5946L312.299 59.4401C312.43 60.9451 312.91 62.3989 313.7 63.6863C314.49 64.9737 315.57 66.0593 316.853 66.857L322.684 70.4857C323.678 71.1044 323.312 72.6297 322.146 72.7311L315.3 73.3239C313.795 73.4548 312.342 73.9344 311.054 74.7248C309.767 75.5152 308.681 76.5946 307.884 77.8774L304.255 83.7085C304.121 83.9265 303.921 84.0964 303.684 84.1942C303.448 84.2919 303.186 84.3124 302.937 84.2528C302.689 84.1932 302.465 84.0565 302.298 83.8622C302.132 83.6679 302.03 83.4259 302.01 83.1708L301.417 76.3252C301.286 74.8207 300.807 73.3673 300.017 72.08C299.227 70.7928 298.149 69.7072 296.866 68.9091L291.032 65.2796C290.814 65.1454 290.644 64.9457 290.546 64.7091C290.449 64.4726 290.428 64.2112 290.488 63.9622C290.547 63.7133 290.684 63.4896 290.878 63.3229C291.073 63.1563 291.315 63.0553 291.57 63.0343L298.415 62.4415C299.92 62.3108 301.373 61.8316 302.661 61.0418C303.948 60.252 305.033 59.1733 305.831 57.8912L309.461 52.0568Z" fill="white" stroke="#000" stroke-width="5" stroke-miterlimit="16"/>
<path d="M351.058 68.6564C351.884 66.0448 352.768 63.5128 353.708 61.0604C354.648 58.608 355.718 56.1351 356.917 53.6416L349.432 53.3662L340.269 65.9811L351.058 68.6564ZM407.89 23.1046C401.868 24.2363 395.689 27.0318 389.353 31.4911C383.017 35.9504 377.485 41.434 372.758 47.9417C369.703 52.1466 367.079 56.5492 364.885 61.1494C362.69 65.7497 361.189 69.9742 360.382 73.8231L377.481 86.1293C380.892 84.1713 384.445 81.4376 388.141 77.9282C391.838 74.4189 395.213 70.5617 398.267 66.3567C402.995 59.849 406.502 52.9144 408.791 45.553C411.079 38.1915 411.83 31.4723 411.044 25.3955C410.989 25.0498 410.87 24.7144 410.685 24.3892C410.501 24.0641 410.259 23.7924 409.958 23.5742C409.658 23.3561 409.325 23.2096 408.958 23.1347C408.592 23.0599 408.236 23.0498 407.89 23.1046ZM384.302 58.7363C382 57.0637 380.619 54.7798 380.16 51.8847C379.701 48.9896 380.308 46.3906 381.981 44.0879C383.653 41.7852 385.959 40.401 388.897 39.9353C391.836 39.4696 394.456 40.0731 396.759 41.7457C399.062 43.4184 400.442 45.7023 400.901 48.5974C401.36 51.4925 400.753 54.0914 399.08 56.3941C397.408 58.6969 395.102 60.0811 392.164 60.5468C389.226 61.0125 386.605 60.409 384.302 58.7363ZM385.278 93.3984L391.179 102.961L400.342 90.3464L397.766 83.3131C395.765 85.2248 393.741 86.9852 391.692 88.5945C389.644 90.2037 387.506 91.805 385.278 93.3984ZM419.807 16.9635C422.005 26.3603 421.919 35.8755 419.548 45.5092C417.176 55.1429 412.536 64.7154 405.628 74.2266L410.254 86.6492C410.874 88.3229 411.055 90.0218 410.796 91.746C410.538 93.4702 409.9 95.0331 408.882 96.4348L395.137 115.357C394.046 116.859 392.569 117.602 390.706 117.588C388.843 117.573 387.429 116.756 386.464 115.137L375.619 97.8529L349.938 79.1991L330.148 74.2296C328.31 73.8122 327.074 72.7234 326.441 70.9634C325.807 69.2033 326.036 67.5724 327.127 66.0706L340.872 47.1482C341.89 45.7466 343.2 44.6529 344.804 43.8673C346.407 43.0817 348.1 42.7248 349.883 42.7965L363.127 43.3551C370.036 33.8439 377.705 26.4713 386.133 21.2375C394.561 16.0036 403.584 12.979 413.2 12.1637C413.905 12.1405 414.627 12.2254 415.366 12.4183C416.105 12.6112 416.775 12.9258 417.376 13.3622C417.977 13.7985 418.483 14.3384 418.895 14.9818C419.307 15.6253 419.611 16.2858 419.807 16.9635ZM338.396 95.2476C340.941 91.7434 344.392 89.6239 348.75 88.889C353.107 88.1541 357.038 89.0593 360.542 91.6046C364.046 94.15 366.123 97.6082 366.771 101.979C367.42 106.35 366.471 110.288 363.926 113.792C360.435 118.598 355.921 121.838 350.384 123.513C344.846 125.188 339.287 126.867 333.707 128.548C333.581 122.721 333.458 116.916 333.338 111.132C333.219 105.348 334.905 100.053 338.396 95.2476ZM346.935 101.336C345.699 103.038 344.964 104.97 344.731 107.134C344.498 109.297 344.38 111.486 344.377 113.701C346.483 113.013 348.531 112.245 350.523 111.398C352.515 110.551 354.129 109.276 355.366 107.574C356.238 106.373 356.601 105.031 356.455 103.548C356.309 102.065 355.635 100.887 354.433 100.015C353.232 99.1419 351.9 98.8436 350.438 99.1196C348.975 99.3957 347.808 100.134 346.935 101.336Z" fill="#000"/>
<path fill-rule="evenodd" clip-rule="evenodd" d="M407.89 23.1046C401.868 24.2363 395.689 27.0318 389.353 31.4911C383.017 35.9504 377.485 41.434 372.758 47.9417C369.703 52.1466 367.079 56.5492 364.885 61.1494C362.69 65.7497 361.189 69.9742 360.382 73.8231L377.481 86.1293C380.892 84.1713 384.445 81.4376 388.141 77.9282C391.838 74.4189 395.213 70.5617 398.267 66.3567C402.995 59.849 406.502 52.9144 408.791 45.553C411.079 38.1915 411.83 31.4723 411.044 25.3955C410.989 25.0498 410.87 24.7144 410.685 24.3892C410.501 24.0641 410.259 23.7924 409.958 23.5742C409.658 23.3561 409.325 23.2096 408.958 23.1347C408.592 23.0599 408.236 23.0498 407.89 23.1046ZM380.16 51.8847C380.619 54.7798 382 57.0637 384.302 58.7363C386.605 60.409 389.226 61.0125 392.164 60.5468C395.102 60.0811 397.408 58.6969 399.08 56.3941C400.753 54.0914 401.36 51.4925 400.901 48.5974C400.442 45.7023 399.062 43.4184 396.759 41.7457C394.456 40.0731 391.836 39.4696 388.897 39.9353C385.959 40.401 383.653 41.7852 381.981 44.0879C380.308 46.3906 379.701 48.9896 380.16 51.8847Z" fill="white"/>
<path d="M351.058 68.6564C351.884 66.0448 352.768 63.5128 353.708 61.0604C354.648 58.608 355.718 56.1351 356.917 53.6416L349.432 53.3662L340.269 65.9811L351.058 68.6564Z" fill="white"/>
<path d="M385.278 93.3984L391.179 102.961L400.342 90.3464L397.766 83.3131C395.765 85.2248 393.741 86.9852 391.692 88.5945C389.644 90.2037 387.506 91.805 385.278 93.3984Z" fill="white"/>
<path d="M346.935 101.336C345.699 103.038 344.964 104.97 344.731 107.134C344.498 109.297 344.38 111.486 344.377 113.701C346.483 113.013 348.531 112.245 350.523 111.398C352.515 110.551 354.129 109.276 355.366 107.574C356.238 106.373 356.601 105.031 356.455 103.548C356.309 102.065 355.635 100.887 354.433 100.015C353.232 99.1419 351.9 98.8436 350.438 99.1196C348.975 99.3957 347.808 100.134 346.935 101.336Z" fill="white"/>
<path d="M426.792 47.3975C426.799 47.3948 426.84 47.3793 426.956 47.3938C426.956 47.3946 426.958 47.3951 426.959 47.3959L426.967 47.4045L437.22 58.7417L438.433 60.0825L440.185 59.6373L455.002 55.8678C455.09 55.8521 455.153 55.8462 455.194 55.8443C455.22 55.8656 455.258 55.8997 455.306 55.9573C455.329 55.9856 455.335 56.0005 455.336 56.0044C455.337 56.0064 455.337 56.0128 455.34 56.0238C455.333 56.0419 455.323 56.07 455.303 56.1071L447.666 69.392L446.762 70.9632L447.733 72.494L455.955 85.4567C455.932 85.5543 455.897 85.6339 455.848 85.7103L455.846 85.711C455.844 85.7122 455.842 85.7145 455.839 85.7167C455.838 85.7173 455.836 85.7172 455.835 85.7179C455.83 85.7169 455.825 85.7168 455.819 85.7154L455.747 85.6992L440.733 82.5665L438.964 82.1973L437.81 83.5889L428.022 95.3968L427.976 95.4543C427.972 95.4593 427.967 95.4628 427.963 95.4669L427.961 95.4678C427.956 95.4684 427.953 95.4682 427.951 95.4683L427.95 95.4686C427.863 95.4395 427.785 95.3999 427.707 95.3372L426.057 80.0759L425.862 78.2736L424.176 77.6085L409.923 71.9802C409.884 71.9636 409.859 71.9479 409.842 71.9382C409.837 71.9279 409.834 71.9225 409.834 71.9204C409.833 71.9163 409.829 71.9007 409.829 71.8639C409.83 71.7901 409.837 71.7398 409.845 71.7065C409.878 71.6825 409.931 71.648 410.009 71.6056L423.946 65.3175L425.594 64.5736L425.706 62.7692L426.658 47.5125L426.659 47.5007L426.659 47.4976C426.742 47.412 426.785 47.3996 426.792 47.3975Z" fill="white" stroke="#000" stroke-width="6"/>
<path d="M477.507 66.5663L478.048 68.2913L479.826 68.6185L490.871 70.6546L481.76 77.1271L480.283 78.1764L480.524 79.973L482.014 91.0409L473.022 84.3875L471.57 83.3124L469.94 84.0941L459.854 88.9316L463.405 78.3435L463.982 76.6248L462.729 75.3156L455.002 67.2405L466.233 67.3246L468.041 67.3388L468.898 65.7468L474.175 55.9381L477.507 66.5663Z" fill="white" stroke="#000" stroke-width="6"/>
<path d="M514.951 31.8547C514.955 31.8606 514.962 31.8678 514.968 31.8782L514.968 31.8791L523.589 46.7418L523.589 46.7427C525.719 50.4123 528.675 53.5357 532.222 55.8645C535.769 58.1932 539.81 59.6638 544.024 60.1598L561.078 62.1718C561.09 62.1733 561.099 62.1753 561.107 62.1768C561.11 62.1843 561.115 62.1932 561.117 62.2045C561.12 62.2152 561.118 62.2253 561.118 62.2332C561.112 62.2375 561.105 62.244 561.095 62.25L546.233 70.8708L546.232 70.871C542.563 73.0013 539.439 75.9571 537.11 79.5041C534.782 83.0508 533.311 87.0917 532.815 91.3055L530.803 108.36L530.801 108.374C530.8 108.382 530.797 108.389 530.791 108.395C530.786 108.401 530.779 108.405 530.771 108.407C530.763 108.409 530.755 108.407 530.747 108.404C530.74 108.401 530.734 108.395 530.73 108.389L530.724 108.377L522.104 93.5151L522.104 93.5141L521.695 92.8329C519.603 89.4582 516.798 86.5772 513.474 84.3936C509.929 82.0646 505.89 80.5929 501.677 80.0954L484.613 78.0844L484.601 78.083L484.579 78.0735C484.573 78.0682 484.569 78.0607 484.568 78.0529C484.566 78.0452 484.567 78.0368 484.57 78.0296C484.573 78.0223 484.579 78.0162 484.586 78.0122L484.597 78.006L499.46 69.386L499.46 69.3851C503.129 67.2558 506.251 64.3016 508.58 60.7562C510.764 57.4325 512.194 53.6754 512.774 49.7476L512.879 48.959L514.89 31.8963C514.891 31.8837 514.893 31.8738 514.895 31.8664C514.902 31.8633 514.911 31.8599 514.923 31.8576C514.933 31.8554 514.943 31.8549 514.951 31.8547Z" fill="white" stroke="#000" stroke-width="6"/>
<path d="M556.484 15.7752C556.837 15.2405 557.666 15.4627 557.704 16.1022L557.929 19.8559C557.978 20.6812 558.219 21.4835 558.633 22.1994C559.046 22.9152 559.621 23.5249 560.311 23.9801L563.448 26.0506C563.983 26.4036 563.761 27.2327 563.121 27.2711L559.367 27.4953C558.542 27.5449 557.74 27.786 557.024 28.1996C556.308 28.6131 555.698 29.1878 555.243 29.8779L553.173 33.0148C553.096 33.1321 552.984 33.2221 552.853 33.2722C552.723 33.3222 552.579 33.3296 552.444 33.2933C552.309 33.2571 552.188 33.179 552.1 33.0703C552.012 32.9615 551.96 32.8277 551.952 32.6878L551.728 28.9341C551.679 28.1091 551.438 27.3069 551.024 26.5912C550.611 25.8754 550.037 25.2657 549.347 24.8104L546.208 22.7394C546.091 22.6628 546.001 22.551 545.951 22.4202C545.901 22.2893 545.894 22.146 545.93 22.0107C545.966 21.8754 546.044 21.755 546.153 21.6667C546.262 21.5784 546.396 21.5266 546.536 21.5189L550.289 21.2948C551.114 21.2453 551.916 21.0044 552.632 20.5911C553.348 20.1779 553.958 19.6037 554.413 18.9139L556.484 15.7752Z" fill="#000"/>
<path d="M575.087 48.8978C575.798 47.756 577.55 48.1756 577.667 49.5155L578.348 57.3799C578.498 59.1088 579.049 60.779 579.957 62.258C580.865 63.737 582.105 64.9841 583.579 65.9006L590.278 70.0694C591.42 70.7802 591 72.5324 589.66 72.6489L581.796 73.3299C580.067 73.4803 578.396 74.0313 576.918 74.9393C575.439 75.8474 574.191 77.0874 573.275 78.5611L569.106 85.2601C568.952 85.5104 568.723 85.7057 568.451 85.818C568.179 85.9302 567.879 85.9538 567.593 85.8853C567.307 85.8169 567.05 85.6598 566.858 85.4366C566.667 85.2134 566.551 84.9354 566.527 84.6423L565.846 76.778C565.695 75.0495 565.145 73.3797 564.238 71.9009C563.33 70.4222 562.091 69.1749 560.618 68.2581L553.915 64.0885C553.665 63.9342 553.47 63.7049 553.358 63.4331C553.245 63.1613 553.222 62.861 553.29 62.575C553.359 62.289 553.516 62.032 553.739 61.8406C553.962 61.6491 554.24 61.5331 554.533 61.509L562.398 60.828C564.126 60.6778 565.796 60.1273 567.275 59.22C568.753 58.3126 570.001 57.0734 570.917 55.6005L575.087 48.8978Z" fill="white" stroke="#000" stroke-width="5" stroke-miterlimit="16"/>
<path d="M599.581 68.1165L600.703 69.5349L602.48 69.206L613.524 67.1666L607.323 76.4642L606.318 77.9716L607.184 79.5638L612.526 89.3711L601.752 86.3649L600.011 85.879L598.768 87.1907L591.072 95.3094L590.611 84.1511L590.536 82.3398L588.899 81.5639L578.799 76.778L589.321 72.8484L591.014 72.2165L591.246 70.4236L592.676 59.3774L599.581 68.1165Z" fill="white" stroke="#000" stroke-width="6"/>
<path d="M639.443 43.0241C641.045 42.1242 642.088 40.8104 642.573 39.0828C643.057 37.3552 642.85 35.6904 641.95 34.0884C641.05 32.4864 639.736 31.4431 638.009 30.9583C636.281 30.4736 634.616 30.6813 633.014 31.5812C631.412 32.4812 630.369 33.795 629.884 35.5226C629.399 37.2502 629.607 38.9149 630.507 40.517C631.407 42.119 632.721 43.1623 634.448 43.647C636.176 44.1318 637.841 43.9241 639.443 43.0241ZM711.632 71.5687C708.428 73.3687 703.367 74.4551 696.451 74.8279C689.535 75.2007 681.701 74.8343 672.951 73.7285C671.716 74.9242 670.408 76.0353 669.027 77.0617C667.647 78.0881 666.194 79.0299 664.668 79.887C655.743 84.9013 646.455 86.0545 636.804 83.3467C627.154 80.6389 619.821 74.8223 614.807 65.8969C613.95 64.3711 613.207 62.7811 612.579 61.1269C611.951 59.4726 611.42 57.8136 610.987 56.1498C603.015 52.4992 596.164 48.7455 590.434 44.8888C584.705 41.032 580.94 37.5017 579.14 34.2977C577.983 32.2379 577.644 30.2954 578.124 28.4701C578.604 26.6449 579.836 25.1751 581.82 24.0608C583.574 23.0751 586.008 22.3603 589.121 21.9163C592.233 21.4723 596.649 21.2495 602.369 21.2478C603.78 21.2581 605.011 21.7962 606.061 22.862C607.112 23.9279 607.632 25.1662 607.621 26.5771C607.611 27.988 607.092 29.2079 606.064 30.2369C605.037 31.2659 603.817 31.7752 602.406 31.7649C600.486 31.7401 598.667 31.8082 596.951 31.9693C595.235 32.1305 593.421 32.2963 591.51 32.4669C594.512 34.5943 597.566 36.5919 600.673 38.4596C603.779 40.3274 606.96 42.1034 610.215 43.7877C610.799 38.0397 612.678 32.719 615.85 27.8256C619.022 22.9322 623.317 18.964 628.733 15.9212C637.658 10.907 646.976 9.7621 656.686 12.4866C666.396 15.2111 673.759 21.036 678.773 29.9615C681.816 35.3778 683.4 41.0114 683.525 46.8623C683.651 52.7131 682.468 58.2451 679.977 63.4582C683.633 63.7128 687.303 63.859 690.987 63.8967C694.672 63.9345 698.328 63.7875 701.955 63.4558C700.531 62.3492 699.109 61.2915 697.689 60.2826C696.269 59.2738 694.732 58.2803 693.079 57.3023C691.868 56.5772 691.081 55.4888 690.718 54.0372C690.354 52.5857 690.534 51.2547 691.259 50.0444C691.985 48.8342 693.073 48.0471 694.525 47.6833C695.976 47.3194 697.307 47.5001 698.517 48.2252C703.682 51.3452 707.398 53.8496 709.663 55.7383C711.929 57.6271 713.554 59.4487 714.54 61.2033C715.783 63.4156 716.105 65.4177 715.505 67.2095C714.906 69.0014 713.615 70.4544 711.632 71.5687ZM662.457 57.1929C663.754 56.4643 664.594 55.4149 664.979 54.0448C665.363 52.6747 665.191 51.3412 664.463 50.0443C663.734 48.7474 662.685 47.9068 661.315 47.5223C659.944 47.1379 658.611 47.31 657.314 48.0385C656.017 48.7671 655.177 49.8165 654.792 51.1866C654.408 52.5567 654.58 53.8902 655.308 55.1871C656.037 56.484 657.086 57.3246 658.456 57.709C659.827 58.0935 661.16 57.9214 662.457 57.1929ZM659.178 37.9585C660.17 37.4014 660.808 36.6165 661.092 35.6038C661.376 34.5911 661.24 33.5888 660.683 32.5971C660.126 31.6054 659.341 30.9675 658.328 30.6833C657.315 30.3992 656.313 30.5357 655.321 31.0928C654.33 31.6499 653.692 32.4349 653.408 33.4476C653.123 34.4603 653.26 35.4625 653.817 36.4542C654.374 37.4459 655.159 38.0839 656.172 38.368C657.184 38.6522 658.187 38.5157 659.178 37.9585ZM658.202 71.3254C652.426 70.1545 646.738 68.7835 641.138 67.2123C635.539 65.6411 630.006 63.8317 624.54 61.7839C626.321 64.5971 628.502 66.96 631.082 68.8727C633.662 70.7855 636.5 72.1764 639.598 73.0456C642.696 73.9148 645.825 74.2143 648.985 73.9444C652.145 73.6744 655.218 72.8014 658.202 71.3254ZM668.639 62.301C671.229 58.3368 672.65 53.9 672.903 48.9907C673.156 44.0814 672.04 39.4145 669.554 34.9899C665.997 28.6581 660.744 24.5335 653.796 22.6161C646.847 20.6986 640.207 21.5184 633.876 25.0755C629.451 27.5612 626.089 30.9555 623.789 35.2583C621.489 39.5612 620.415 44.0792 620.564 48.8123C628.17 52.1672 636.023 54.9813 644.125 57.2545C652.227 59.5277 660.398 61.2098 668.639 62.301Z" fill="#000"/>
<path fill-rule="evenodd" clip-rule="evenodd" d="M668.639 62.301C671.229 58.3368 672.65 53.9 672.903 48.9907C673.156 44.0814 672.04 39.4145 669.554 34.9899C665.997 28.6581 660.744 24.5335 653.796 22.6161C646.847 20.6986 640.207 21.5184 633.876 25.0755C629.451 27.5612 626.089 30.9555 623.789 35.2583C621.489 39.5612 620.415 44.0792 620.564 48.8123C628.17 52.1672 636.023 54.9813 644.125 57.2545C652.227 59.5277 660.398 61.2098 668.639 62.301ZM642.573 39.0828C642.088 40.8104 641.045 42.1242 639.443 43.0241C637.841 43.9241 636.176 44.1318 634.448 43.647C632.721 43.1623 631.407 42.119 630.507 40.517C629.607 38.9149 629.399 37.2502 629.884 35.5226C630.369 33.795 631.412 32.4812 633.014 31.5812C634.616 30.6813 636.281 30.4736 638.009 30.9583C639.736 31.4431 641.05 32.4864 641.95 34.0884C642.85 35.6904 643.057 37.3552 642.573 39.0828ZM664.979 54.0448C664.594 55.4149 663.754 56.4643 662.457 57.1929C661.16 57.9214 659.827 58.0935 658.456 57.709C657.086 57.3246 656.037 56.484 655.308 55.1871C654.58 53.8902 654.408 52.5567 654.792 51.1866C655.177 49.8165 656.017 48.7671 657.314 48.0385C658.611 47.31 659.944 47.1379 661.315 47.5223C662.685 47.9068 663.734 48.7474 664.463 50.0443C665.191 51.3412 665.363 52.6747 664.979 54.0448ZM661.092 35.6038C660.808 36.6165 660.17 37.4014 659.178 37.9585C658.187 38.5157 657.184 38.6522 656.172 38.368C655.159 38.0839 654.374 37.4459 653.817 36.4542C653.26 35.4625 653.123 34.4603 653.408 33.4476C653.692 32.4349 654.33 31.6499 655.321 31.0928C656.313 30.5357 657.315 30.3992 658.328 30.6833C659.341 30.9675 660.126 31.6054 660.683 32.5971C661.24 33.5888 661.376 34.5911 661.092 35.6038Z" fill="white"/>
<path d="M658.202 71.3254C652.426 70.1545 646.738 68.7835 641.138 67.2123C635.539 65.6411 630.006 63.8317 624.54 61.7839C626.321 64.5971 628.502 66.96 631.082 68.8727C633.662 70.7855 636.5 72.1764 639.598 73.0456C642.696 73.9148 645.825 74.2143 648.985 73.9444C652.145 73.6744 655.218 72.8014 658.202 71.3254Z" fill="white"/>
<path d="M665.827 93.638L665.808 95.4454L667.398 96.3051L674.288 100.033L666.856 102.365L665.127 102.907L664.803 104.691L663.41 112.348L658.88 106.002L657.83 104.531L656.038 104.772L648.31 105.81L652.941 99.5555L654.02 98.0986L653.232 96.4664L649.846 89.4509L657.28 91.9244L658.995 92.4955L660.301 91.2456L665.902 85.884L665.827 93.638Z" fill="white" stroke="#000" stroke-width="6"/>
<path d="M705.519 87.4985L706.735 88.836L708.486 88.385L719.362 85.5871L713.819 95.2911L712.92 96.8644L713.895 98.3929L719.902 107.807L708.945 105.553L707.175 105.189L706.026 106.583L698.91 115.215L697.678 104.115L697.478 102.313L695.791 101.652L685.385 97.5758L695.61 92.9284L697.256 92.1809L697.363 90.3762L698.026 79.2576L705.519 87.4985Z" fill="white" stroke="#000" stroke-width="6"/>
<path d="M721.116 23.8191L721.118 23.8198C722.086 25.2853 723.381 26.5057 724.902 27.3835C726.423 28.2611 728.128 28.7716 729.881 28.8762L729.881 28.8772L731.902 28.9981L730.211 30.1143L730.21 30.1146C728.744 31.0825 727.524 32.3788 726.646 33.9003C725.769 35.4216 725.256 37.1263 725.152 38.8796L725.031 40.8997L723.915 39.2079L723.915 39.2069L723.73 38.935C722.785 37.5904 721.557 36.467 720.132 35.6439C718.706 34.8207 717.118 34.3194 715.481 34.1734L715.153 34.149L713.13 34.0279L714.822 32.9124C716.287 31.9449 717.508 30.6494 718.386 29.1286C719.209 27.7028 719.71 26.1155 719.856 24.4782L719.881 24.1502L720.001 22.1283L721.116 23.8191Z" fill="white" stroke="#000" stroke-width="5"/>
<path d="M752.683 53.322L752.683 53.323C753.428 56.6732 754.942 59.8043 757.107 62.4674C759.272 65.1301 762.028 67.252 765.155 68.6652L765.155 68.6661L775.771 73.4655L764.391 75.9917L764.39 75.9926C761.04 76.7374 757.909 78.252 755.246 80.417C752.749 82.4467 750.727 84.9953 749.32 87.8831L749.047 88.4655L744.247 99.0807L741.721 87.7009L741.722 87.6999C740.977 84.3507 739.463 81.2206 737.3 78.5578C735.136 75.8949 732.382 73.7714 729.255 72.3574L718.633 67.5565L730.013 65.0313L730.013 65.0303C733.363 64.2861 736.494 62.7723 739.156 60.6087C741.819 58.445 743.942 55.6912 745.356 52.5651L745.356 52.5642L750.157 41.9412L752.683 53.322Z" fill="white" stroke="#000" stroke-width="6"/>
<path d="M796.636 73.3782L796.637 75.1861L798.236 76.0294L808.167 81.2719L797.539 84.7272L795.816 85.2874L795.509 87.0739L793.625 98.0816L787.031 89.0457L785.966 87.5857L784.178 87.8451L773.107 89.4483L779.659 80.4047L780.723 78.9367L779.918 77.3131L774.957 67.2985L785.65 70.734L787.371 71.2874L788.664 70.0241L796.631 62.2399L796.636 73.3782Z" fill="white" stroke="#000" stroke-width="6"/>
<path d="M823.749 42.8139C823.809 42.7981 823.92 42.7796 824.141 42.8388C824.143 42.8394 824.145 42.84 824.146 42.8404C824.148 42.8413 824.154 42.8455 824.166 42.8565C824.179 42.8689 824.2 42.8911 824.228 42.927L824.235 42.9374L834.439 56.1879L835.542 57.6202L837.324 57.3138L853.83 54.4795C854.02 54.4606 854.125 54.4693 854.169 54.4759C854.224 54.5085 854.306 54.5728 854.411 54.7242C854.471 54.8111 854.496 54.8798 854.501 54.9955L854.501 54.9974L854.497 55.0147C854.49 55.0367 854.467 55.1007 854.396 55.2088L844.92 69.0364L843.896 70.532L844.742 72.134L852.591 86.9835L852.591 86.9844C852.616 87.0316 852.629 87.0662 852.637 87.0883C852.596 87.275 852.528 87.4198 852.426 87.5528C852.4 87.5868 852.365 87.6291 852.226 87.6783C852.22 87.6805 852.217 87.6818 852.216 87.6819L852.083 87.6533L852.013 87.6314L835.909 82.9183L834.175 82.4106L832.915 83.7066L821.22 95.7394L821.169 95.7931C821.105 95.8621 821.069 95.8824 821.068 95.8834C821.066 95.8837 821.063 95.884 821.058 95.8849C820.913 95.9105 820.86 95.8914 820.821 95.8746C820.667 95.8087 820.536 95.7162 820.407 95.5735C820.404 95.5512 820.4 95.5163 820.399 95.4668L819.916 78.6709L819.864 76.8598L818.235 76.0627L803.178 68.6947C803.063 68.6352 803.012 68.5909 802.995 68.5752C802.987 68.5669 802.984 68.5621 802.984 68.5621L802.983 68.5624L802.982 68.5605C802.93 68.4574 802.917 68.3854 802.927 68.2802C802.943 68.099 802.982 68.0019 803.013 67.9463C803.046 67.92 803.134 67.8597 803.311 67.7811L819.075 62.1188L820.776 61.5082L821.03 59.7186L823.386 43.1609L823.387 43.1483C823.394 43.1036 823.401 43.0737 823.406 43.0567C823.41 43.0433 823.412 43.0359 823.414 43.0334C823.415 43.0321 823.417 43.0309 823.42 43.0288C823.583 42.8684 823.689 42.8297 823.749 42.8139Z" fill="white" stroke="#000" stroke-width="6"/>
<path d="M869.878 73.1556L869.673 74.9518L871.166 75.972L878.923 81.2789L869.759 83.1366L867.983 83.4965L867.476 85.2369L864.859 94.205L860.241 86.0658L859.349 84.4934L857.542 84.5471L848.187 84.8226L854.496 77.9326L855.72 76.5956L855.106 74.8903L851.938 66.0928L860.501 69.9705L862.147 70.7166L863.576 69.609L870.936 63.903L869.878 73.1556Z" fill="white" stroke="#000" stroke-width="6"/>
<path d="M887.598 17.8658C888.272 18.2584 888.813 18.8434 889.152 19.5458C889.491 20.2482 889.612 21.0359 889.5 21.8076C888.628 27.8842 889.299 34.0825 891.453 39.8311C898.579 58.9687 919.951 68.6558 939.179 61.4958C941.691 60.5569 944.028 59.3974 946.192 58.0174C946.854 57.5957 947.625 57.3775 948.409 57.3896C949.194 57.4018 949.958 57.6439 950.607 58.0859C951.289 58.5431 951.8 59.214 952.06 59.9932C952.32 60.7724 952.313 61.6158 952.042 62.3909C950.016 68.3661 946.683 73.8141 942.284 78.3375C937.886 82.861 932.534 86.3461 926.618 88.5388C904.677 96.7089 880.323 85.6502 872.214 63.8712C866.11 47.4799 870.936 29.6741 883.043 18.3808C883.643 17.812 884.413 17.4541 885.234 17.3612C886.056 17.2683 886.886 17.4454 887.598 17.8658ZM883.994 24.8062C879.586 29.8125 876.617 35.9193 875.402 42.4778C874.186 49.0363 874.77 55.8015 877.092 62.0546C884.216 81.1874 905.593 90.8727 924.821 83.7128C929.428 82.0052 933.65 79.4014 937.245 76.0518C940.839 72.7023 943.734 68.6735 945.762 64.1983C944.231 64.9961 942.636 65.7039 940.976 66.3218C919.035 74.492 894.686 63.4314 886.576 41.6525C884.508 36.0983 883.691 30.3817 883.994 24.8062Z" fill="#000"/>
<path d="M883.994 24.8062C879.586 29.8125 876.617 35.9193 875.402 42.4778C874.186 49.0363 874.77 55.8015 877.092 62.0546C884.216 81.1874 905.593 90.8727 924.821 83.7128C929.428 82.0052 933.65 79.4014 937.245 76.0518C940.839 72.7023 943.734 68.6735 945.762 64.1983C944.231 64.9961 942.636 65.7039 940.976 66.3218C919.035 74.492 894.686 63.4314 886.576 41.6525C884.508 36.0983 883.691 30.3817 883.994 24.8062Z" fill="white"/>
<path d="M887.598 17.8658C888.272 18.2584 888.813 18.8434 889.152 19.5458C889.491 20.2482 889.612 21.0359 889.5 21.8076C888.628 27.8842 889.299 34.0825 891.453 39.8311C898.579 58.9687 919.951 68.6558 939.179 61.4958C941.691 60.5569 944.028 59.3974 946.192 58.0174C946.854 57.5957 947.625 57.3775 948.409 57.3896C949.194 57.4018 949.958 57.6439 950.607 58.0859C951.289 58.5431 951.8 59.214 952.06 59.9932C952.32 60.7724 952.313 61.6158 952.042 62.3909C950.016 68.3661 946.683 73.8141 942.284 78.3375C937.886 82.861 932.534 86.3461 926.618 88.5388C904.677 96.7089 880.323 85.6502 872.214 63.8712C866.11 47.4799 870.936 29.6741 883.043 18.3808C883.643 17.812 884.413 17.4541 885.234 17.3612C886.056 17.2683 886.886 17.4454 887.598 17.8658ZM883.994 24.8062C879.586 29.8125 876.617 35.9193 875.402 42.4778C874.186 49.0363 874.77 55.8015 877.092 62.0546C884.216 81.1874 905.593 90.8727 924.821 83.7128C929.428 82.0052 933.65 79.4014 937.245 76.0518C940.839 72.7023 943.734 68.6735 945.762 64.1983C944.231 64.9961 942.636 65.7039 940.976 66.3218C919.035 74.492 894.686 63.4314 886.576 41.6525C884.508 36.0983 883.691 30.3817 883.994 24.8062Z" stroke="#000" stroke-width="2" stroke-linejoin="round"/>
<path d="M883.994 24.8062C879.586 29.8125 876.617 35.9193 875.402 42.4778C874.186 49.0363 874.77 55.8015 877.092 62.0546C884.216 81.1874 905.593 90.8727 924.821 83.7128C929.428 82.0052 933.65 79.4014 937.245 76.0518C940.839 72.7023 943.734 68.6735 945.762 64.1983C944.231 64.9961 942.636 65.7039 940.976 66.3218C919.035 74.492 894.686 63.4314 886.576 41.6525C884.508 36.0983 883.691 30.3817 883.994 24.8062Z" stroke="#000" stroke-width="2" stroke-linejoin="round"/>
<path d="M917.089 20.629C917.079 20.3782 917.149 20.131 917.289 19.9223C917.428 19.7137 917.63 19.5543 917.865 19.4667C918.1 19.3791 918.357 19.3679 918.598 19.4346C918.84 19.5013 919.055 19.6425 919.212 19.8382L923.437 25.0847C925.323 27.4225 928.195 28.7359 931.197 28.6334L937.929 28.3979C938.179 28.3887 938.427 28.4587 938.635 28.5981C938.844 28.7374 939.003 28.939 939.091 29.1741C939.179 29.4092 939.19 29.666 939.123 29.9078C939.056 30.1497 938.915 30.3644 938.719 30.5214L933.473 34.7464C932.318 35.6743 931.396 36.859 930.78 38.2061C930.164 39.5533 929.871 41.0257 929.924 42.506L930.16 49.2381C930.169 49.4888 930.099 49.736 929.96 49.9447C929.82 50.1533 929.619 50.3128 929.384 50.4003C929.148 50.4879 928.892 50.4991 928.65 50.4324C928.408 50.3657 928.193 50.2245 928.036 50.0288L923.811 44.7823C922.883 43.6276 921.699 42.7055 920.352 42.0894C919.004 41.4733 917.532 41.1802 916.052 41.2336L909.32 41.4691C909.069 41.4783 908.822 41.4083 908.613 41.2689C908.404 41.1296 908.245 40.928 908.157 40.6929C908.07 40.4578 908.059 40.201 908.125 39.9592C908.192 39.7173 908.333 39.5026 908.529 39.3456L913.775 35.1206C914.93 34.1927 915.852 33.0081 916.468 31.6609C917.084 30.3137 917.377 28.8414 917.324 27.361L917.089 20.629Z" fill="#000"/>
<path d="M974.583 65.3833L975.146 67.1014L976.928 67.4062L987.997 69.3032L978.968 75.8898L977.505 76.9576L977.768 78.751L979.397 89.7993L970.322 83.2595L968.857 82.2028L967.237 83.005L957.212 87.969L960.63 77.3371L961.185 75.6112L959.916 74.3179L952.088 66.3407L963.32 66.2835L965.127 66.2748L965.964 64.6722L971.118 54.7979L974.583 65.3833Z" fill="white" stroke="#000" stroke-width="6"/>
<path d="M993.987 95.1973L994.7 96.1687L995.892 95.9925L1002.55 95.0065L998.639 100.443L997.933 101.424L998.473 102.505L1001.46 108.495L995.072 106.462L993.925 106.097L993.065 106.941L988.28 111.641L988.244 104.946L988.237 103.738L987.165 103.182L981.217 100.098L987.605 97.9705L988.749 97.5891L988.946 96.4005L990.038 89.8166L993.987 95.1973Z" fill="white" stroke="#000" stroke-width="4"/>
<path d="M1011.05 32.8549C1011.05 32.8608 1011.06 32.8679 1011.07 32.8783L1011.07 32.8793L1019.69 47.7419L1019.69 47.7429C1021.82 51.4125 1024.77 54.5358 1028.32 56.8647C1031.87 59.1934 1035.91 60.6639 1040.12 61.1599L1057.18 63.172C1057.19 63.1734 1057.2 63.1755 1057.21 63.177C1057.21 63.1845 1057.21 63.1933 1057.22 63.2047C1057.22 63.2154 1057.22 63.2254 1057.22 63.2334C1057.21 63.2376 1057.2 63.2442 1057.19 63.2502L1042.33 71.8709L1042.33 71.8711C1038.66 74.0014 1035.54 76.9573 1033.21 80.5042C1030.88 84.051 1029.41 88.0918 1028.91 92.3056L1026.9 109.361L1026.9 109.374C1026.9 109.382 1026.9 109.389 1026.89 109.395C1026.88 109.401 1026.88 109.406 1026.87 109.407C1026.86 109.409 1026.85 109.407 1026.85 109.404C1026.84 109.401 1026.83 109.395 1026.83 109.389L1026.82 109.377L1018.2 94.5152L1018.2 94.5143L1017.79 93.8331C1015.7 90.4584 1012.9 87.5773 1009.57 85.3938C1006.03 83.0647 1001.99 81.5931 997.776 81.0956L980.712 79.0846L980.7 79.0831L980.678 79.0737C980.672 79.0683 980.668 79.0608 980.667 79.0531C980.665 79.0453 980.666 79.0369 980.669 79.0297C980.672 79.0224 980.678 79.0163 980.685 79.0124L980.696 79.0062L995.559 70.3862L995.559 70.3852C999.227 68.256 1002.35 65.3017 1004.68 61.7564C1006.86 58.4327 1008.29 54.6755 1008.87 50.7478L1008.98 49.9591L1010.99 32.8965C1010.99 32.8839 1010.99 32.874 1010.99 32.8666C1011 32.8635 1011.01 32.8601 1011.02 32.8577C1011.03 32.8555 1011.04 32.8551 1011.05 32.8549Z" fill="white" stroke="#000" stroke-width="6"/>
<path d="M1052.58 23.7754C1052.94 23.2407 1053.76 23.4628 1053.8 24.1024L1054.03 27.8561C1054.08 28.6814 1054.32 29.4837 1054.73 30.1996C1055.15 30.9154 1055.72 31.5251 1056.41 31.9803L1059.55 34.0508C1060.08 34.4038 1059.86 35.2329 1059.22 35.2713L1055.47 35.4954C1054.64 35.545 1053.84 35.7862 1053.12 36.1998C1052.41 36.6133 1051.8 37.1879 1051.34 37.8781L1049.27 41.015C1049.19 41.1323 1049.08 41.2223 1048.95 41.2723C1048.82 41.3223 1048.68 41.3298 1048.54 41.2935C1048.41 41.2572 1048.29 41.1792 1048.2 41.0704C1048.11 40.9617 1048.06 40.8279 1048.05 40.688L1047.83 36.9343C1047.78 36.1093 1047.54 35.3071 1047.12 34.5914C1046.71 33.8756 1046.14 33.2659 1045.45 32.8105L1042.31 30.7396C1042.19 30.6629 1042.1 30.5512 1042.05 30.4204C1042 30.2895 1041.99 30.1462 1042.03 30.0109C1042.07 29.8756 1042.14 29.7552 1042.25 29.6669C1042.36 29.5786 1042.49 29.5268 1042.63 29.5191L1046.39 29.2949C1047.21 29.2455 1048.02 29.0046 1048.73 28.5913C1049.45 28.1781 1050.06 27.6038 1050.51 26.9141L1052.58 23.7754Z" fill="#000"/>
<path d="M1046.41 96.8911C1046.41 96.4118 1047.02 96.2127 1047.31 96.598L1048.98 98.86C1049.35 99.3571 1049.83 99.7617 1050.38 100.042C1050.93 100.322 1051.54 100.47 1052.16 100.473L1054.97 100.491C1055.45 100.494 1055.65 101.105 1055.26 101.39L1053 103.062C1052.5 103.43 1052.1 103.909 1051.82 104.46C1051.54 105.012 1051.39 105.621 1051.39 106.239L1051.37 109.051C1051.37 109.156 1051.34 109.258 1051.27 109.342C1051.21 109.427 1051.13 109.49 1051.03 109.523C1050.93 109.555 1050.82 109.555 1050.72 109.523C1050.62 109.491 1050.53 109.428 1050.47 109.344L1048.8 107.082C1048.43 106.585 1047.95 106.18 1047.4 105.9C1046.85 105.62 1046.24 105.472 1045.62 105.468L1042.81 105.451C1042.71 105.45 1042.6 105.417 1042.52 105.355C1042.43 105.294 1042.37 105.207 1042.34 105.107C1042.31 105.008 1042.31 104.9 1042.34 104.801C1042.37 104.701 1042.43 104.614 1042.52 104.552L1044.78 102.88C1045.28 102.512 1045.68 102.033 1045.96 101.482C1046.24 100.931 1046.39 100.322 1046.39 99.704L1046.41 96.8911Z" fill="white"/>
<path d="M1071.75 52.057C1072.36 51.0631 1073.89 51.4284 1073.99 52.5947L1074.58 59.4403C1074.71 60.9452 1075.19 62.399 1075.98 63.6864C1076.77 64.9738 1077.85 66.0594 1079.14 66.8572L1084.97 70.4859C1085.96 71.1046 1085.6 72.6298 1084.43 72.7312L1077.58 73.324C1076.08 73.4549 1074.63 73.9346 1073.34 74.725C1072.05 75.5154 1070.97 76.5948 1070.17 77.8776L1066.54 83.7087C1066.41 83.9266 1066.21 84.0966 1065.97 84.1943C1065.73 84.292 1065.47 84.3126 1065.22 84.253C1064.97 84.1933 1064.75 84.0566 1064.58 83.8623C1064.42 83.668 1064.32 83.4261 1064.29 83.171L1063.7 76.3254C1063.57 74.8209 1063.09 73.3674 1062.3 72.0802C1061.51 70.793 1060.43 69.7073 1059.15 68.9093L1053.32 65.2798C1053.1 65.1455 1052.93 64.9459 1052.83 64.7093C1052.73 64.4727 1052.71 64.2113 1052.77 63.9624C1052.83 63.7135 1052.97 63.4897 1053.16 63.3231C1053.36 63.1564 1053.6 63.0554 1053.85 63.0345L1060.7 62.4417C1062.2 62.311 1063.66 61.8318 1064.95 61.042C1066.23 60.2522 1067.32 59.1735 1068.12 57.8914L1071.75 52.057Z" fill="white" stroke="#000" stroke-width="5" stroke-miterlimit="16"/>
<path d="M1113.34 68.6565C1114.17 66.045 1115.05 63.513 1115.99 61.0606C1116.93 58.6082 1118 56.1352 1119.2 53.6417L1111.72 53.3663L1102.55 65.9812L1113.34 68.6565ZM1170.17 23.1048C1164.15 24.2364 1157.97 27.0319 1151.64 31.4913C1145.3 35.9506 1139.77 41.4341 1135.04 47.9418C1131.99 52.1468 1129.36 56.5494 1127.17 61.1496C1124.97 65.7498 1123.47 69.9744 1122.67 73.8232L1139.77 86.1294C1143.18 84.1714 1146.73 81.4377 1150.43 77.9284C1154.12 74.419 1157.5 70.5618 1160.55 66.3569C1165.28 59.8492 1168.79 52.9146 1171.08 45.5531C1173.36 38.1917 1174.11 31.4725 1173.33 25.3956C1173.27 25.0499 1173.15 24.7145 1172.97 24.3894C1172.79 24.0642 1172.54 23.7926 1172.24 23.5744C1171.94 23.3562 1171.61 23.2097 1171.24 23.1349C1170.88 23.06 1170.52 23.05 1170.17 23.1048ZM1146.59 58.7365C1144.28 57.0638 1142.9 54.7799 1142.44 51.8848C1141.99 48.9897 1142.59 46.3908 1144.27 44.0881C1145.94 41.7853 1148.24 40.4011 1151.18 39.9354C1154.12 39.4697 1156.74 40.0732 1159.04 41.7459C1161.35 43.4185 1162.73 45.7024 1163.19 48.5975C1163.64 51.4926 1163.04 54.0916 1161.36 56.3943C1159.69 58.697 1157.39 60.0812 1154.45 60.5469C1151.51 61.0126 1148.89 60.4091 1146.59 58.7365ZM1147.56 93.3986L1153.46 102.962L1162.63 90.3466L1160.05 83.3132C1158.05 85.2249 1156.03 86.9854 1153.98 88.5946C1151.93 90.2039 1149.79 91.8052 1147.56 93.3986ZM1182.09 16.9636C1184.29 26.3604 1184.2 35.8756 1181.83 45.5093C1179.46 55.143 1174.82 64.7155 1167.91 74.2267L1172.54 86.6494C1173.16 88.323 1173.34 90.0219 1173.08 91.7461C1172.82 93.4703 1172.18 95.0332 1171.17 96.4349L1157.42 115.357C1156.33 116.859 1154.85 117.603 1152.99 117.588C1151.13 117.573 1149.71 116.756 1148.75 115.137L1137.9 97.8531L1112.22 79.1993L1092.43 74.2297C1090.59 73.8123 1089.36 72.7236 1088.72 70.9635C1088.09 69.2034 1088.32 67.5725 1089.41 66.0708L1103.16 47.1484C1104.17 45.7467 1105.48 44.6531 1107.09 43.8675C1108.69 43.0819 1110.38 42.7249 1112.17 42.7967L1125.41 43.3553C1132.32 33.844 1139.99 26.4715 1148.42 21.2376C1156.85 16.0037 1165.87 12.9791 1175.48 12.1638C1176.19 12.1407 1176.91 12.2256 1177.65 12.4185C1178.39 12.6114 1179.06 12.926 1179.66 13.3623C1180.26 13.7987 1180.77 14.3386 1181.18 14.982C1181.59 15.6254 1181.9 16.286 1182.09 16.9636ZM1100.68 95.2477C1103.23 91.7436 1106.68 89.624 1111.03 88.8891C1115.39 88.1542 1119.32 89.0595 1122.83 91.6048C1126.33 94.1502 1128.41 97.6084 1129.06 101.98C1129.7 106.351 1128.76 110.288 1126.21 113.792C1122.72 118.598 1118.21 121.838 1112.67 123.513C1107.13 125.188 1101.57 126.867 1095.99 128.548C1095.87 122.721 1095.74 116.916 1095.62 111.132C1095.5 105.348 1097.19 100.053 1100.68 95.2477ZM1109.22 101.336C1107.98 103.038 1107.25 104.971 1107.02 107.134C1106.78 109.297 1106.66 111.486 1106.66 113.701C1108.77 113.013 1110.82 112.246 1112.81 111.398C1114.8 110.551 1116.41 109.276 1117.65 107.574C1118.52 106.373 1118.89 105.031 1118.74 103.548C1118.59 102.065 1117.92 100.887 1116.72 100.015C1115.52 99.142 1114.18 98.8437 1112.72 99.1198C1111.26 99.3959 1110.09 100.135 1109.22 101.336Z" fill="#000"/>
<path fill-rule="evenodd" clip-rule="evenodd" d="M1170.17 23.1048C1164.15 24.2364 1157.97 27.0319 1151.64 31.4913C1145.3 35.9506 1139.77 41.4341 1135.04 47.9418C1131.99 52.1468 1129.36 56.5494 1127.17 61.1496C1124.97 65.7498 1123.47 69.9744 1122.67 73.8232L1139.77 86.1294C1143.18 84.1714 1146.73 81.4377 1150.43 77.9284C1154.12 74.419 1157.5 70.5618 1160.55 66.3569C1165.28 59.8492 1168.79 52.9146 1171.08 45.5531C1173.36 38.1917 1174.11 31.4725 1173.33 25.3956C1173.27 25.0499 1173.15 24.7145 1172.97 24.3894C1172.79 24.0642 1172.54 23.7926 1172.24 23.5744C1171.94 23.3562 1171.61 23.2097 1171.24 23.1349C1170.88 23.06 1170.52 23.05 1170.17 23.1048ZM1142.44 51.8848C1142.9 54.7799 1144.28 57.0638 1146.59 58.7365C1148.89 60.4091 1151.51 61.0126 1154.45 60.5469C1157.39 60.0812 1159.69 58.697 1161.36 56.3943C1163.04 54.0916 1163.64 51.4926 1163.19 48.5975C1162.73 45.7024 1161.35 43.4185 1159.04 41.7459C1156.74 40.0732 1154.12 39.4697 1151.18 39.9354C1148.24 40.4011 1145.94 41.7853 1144.27 44.0881C1142.59 46.3908 1141.99 48.9897 1142.44 51.8848Z" fill="white"/>
<path d="M1113.34 68.6565C1114.17 66.045 1115.05 63.513 1115.99 61.0606C1116.93 58.6082 1118 56.1352 1119.2 53.6417L1111.72 53.3663L1102.55 65.9812L1113.34 68.6565Z" fill="white"/>
<path d="M1147.56 93.3986L1153.46 102.962L1162.63 90.3466L1160.05 83.3132C1158.05 85.2249 1156.03 86.9854 1153.98 88.5946C1151.93 90.2039 1149.79 91.8052 1147.56 93.3986Z" fill="white"/>
<path d="M1109.22 101.336C1107.98 103.038 1107.25 104.971 1107.02 107.134C1106.78 109.297 1106.66 111.486 1106.66 113.701C1108.77 113.013 1110.82 112.246 1112.81 111.398C1114.8 110.551 1116.41 109.276 1117.65 107.574C1118.52 106.373 1118.89 105.031 1118.74 103.548C1118.59 102.065 1117.92 100.887 1116.72 100.015C1115.52 99.142 1114.18 98.8437 1112.72 99.1198C1111.26 99.3959 1110.09 100.135 1109.22 101.336Z" fill="white"/>
<path d="M1189.08 47.3976C1189.08 47.3949 1189.12 47.3795 1189.24 47.394C1189.24 47.3947 1189.24 47.3953 1189.24 47.3961L1189.25 47.4046L1199.5 58.7419L1200.72 60.0826L1202.47 59.6374L1217.29 55.868C1217.37 55.8523 1217.44 55.8464 1217.48 55.8445C1217.5 55.8658 1217.54 55.8999 1217.59 55.9574C1217.61 55.9858 1217.62 56.0006 1217.62 56.0045C1217.62 56.0066 1217.62 56.013 1217.62 56.0239C1217.62 56.0421 1217.61 56.0702 1217.59 56.1072L1209.95 69.3922L1209.05 70.9633L1210.02 72.4942L1218.24 85.4569C1218.22 85.5545 1218.18 85.634 1218.13 85.7105L1218.13 85.7111C1218.13 85.7124 1218.13 85.7147 1218.12 85.7168C1218.12 85.7174 1218.12 85.7174 1218.12 85.7181C1218.11 85.7171 1218.11 85.7169 1218.1 85.7156L1218.03 85.6993L1203.02 82.5667L1201.25 82.1974L1200.09 83.5891L1190.31 95.397L1190.26 95.4545C1190.26 95.4595 1190.25 95.463 1190.25 95.467L1190.25 95.468C1190.24 95.4685 1190.24 95.4683 1190.23 95.4685L1190.23 95.4688C1190.15 95.4397 1190.07 95.4 1189.99 95.3374L1188.34 80.0761L1188.15 78.2737L1186.46 77.6086L1172.21 71.9804C1172.17 71.9637 1172.14 71.9481 1172.13 71.9383C1172.12 71.9281 1172.12 71.9227 1172.12 71.9205C1172.12 71.9164 1172.11 71.9008 1172.11 71.8641C1172.11 71.7902 1172.12 71.74 1172.13 71.7066C1172.16 71.6826 1172.22 71.6481 1172.29 71.6057L1186.23 65.3176L1187.88 64.5737L1187.99 62.7693L1188.94 47.5126L1188.94 47.5009L1188.94 47.4978C1189.03 47.4122 1189.07 47.3998 1189.08 47.3976Z" fill="white" stroke="#000" stroke-width="6"/>
<path d="M1239.79 66.5664L1240.33 68.2915L1242.11 68.6186L1253.16 70.6548L1244.04 77.1273L1242.57 78.1766L1242.81 79.9731L1244.3 91.0411L1235.31 84.3876L1233.85 83.3125L1232.22 84.0943L1222.14 88.9317L1225.69 78.3437L1226.27 76.625L1225.01 75.3158L1217.29 67.2407L1228.52 67.3248L1230.33 67.3389L1231.18 65.7469L1236.46 55.9382L1239.79 66.5664Z" fill="white" stroke="#000" stroke-width="6"/>
<path d="M1277.24 31.8549C1277.24 31.8608 1277.25 31.8679 1277.25 31.8783L1277.25 31.8793L1285.87 46.7419L1285.87 46.7429C1288 50.4125 1290.96 53.5358 1294.51 55.8647C1298.05 58.1934 1302.09 59.6639 1306.31 60.1599L1323.36 62.172C1323.37 62.1734 1323.38 62.1755 1323.39 62.177C1323.39 62.1845 1323.4 62.1933 1323.4 62.2047C1323.4 62.2154 1323.4 62.2254 1323.4 62.2334C1323.4 62.2376 1323.39 62.2442 1323.38 62.2502L1308.52 70.8709L1308.52 70.8711C1304.85 73.0014 1301.72 75.9573 1299.39 79.5042C1297.07 83.051 1295.6 87.0918 1295.1 91.3056L1293.09 108.361L1293.09 108.374C1293.08 108.382 1293.08 108.389 1293.08 108.395C1293.07 108.401 1293.06 108.406 1293.06 108.407C1293.05 108.409 1293.04 108.407 1293.03 108.404C1293.02 108.401 1293.02 108.395 1293.01 108.389L1293.01 108.377L1284.39 93.5152L1284.39 93.5143L1283.98 92.8331C1281.89 89.4584 1279.08 86.5773 1275.76 84.3938C1272.21 82.0647 1268.17 80.5931 1263.96 80.0956L1246.9 78.0846L1246.89 78.0831L1246.86 78.0737C1246.86 78.0683 1246.85 78.0608 1246.85 78.0531C1246.85 78.0453 1246.85 78.0369 1246.85 78.0297C1246.86 78.0224 1246.86 78.0163 1246.87 78.0124L1246.88 78.0062L1261.74 69.3862L1261.74 69.3852C1265.41 67.256 1268.54 64.3017 1270.86 60.7564C1273.05 57.4327 1274.48 53.6755 1275.06 49.7478L1275.16 48.9591L1277.17 31.8965C1277.18 31.8839 1277.18 31.874 1277.18 31.8666C1277.19 31.8635 1277.2 31.8601 1277.21 31.8577C1277.22 31.8555 1277.23 31.8551 1277.24 31.8549Z" fill="white" stroke="#000" stroke-width="6"/>
<path d="M1318.77 15.7753C1319.12 15.2407 1319.95 15.4628 1319.99 16.1024L1320.21 19.8561C1320.26 20.6813 1320.5 21.4837 1320.92 22.1995C1321.33 22.9154 1321.91 23.5251 1322.6 23.9803L1325.73 26.0508C1326.27 26.4038 1326.04 27.2329 1325.41 27.2713L1321.65 27.4954C1320.83 27.545 1320.02 27.7862 1319.31 28.1997C1318.59 28.6133 1317.98 29.1879 1317.53 29.878L1315.46 33.015C1315.38 33.1322 1315.27 33.2223 1315.14 33.2723C1315.01 33.3223 1314.86 33.3297 1314.73 33.2935C1314.59 33.2572 1314.47 33.1791 1314.38 33.0704C1314.3 32.9617 1314.24 32.8278 1314.24 32.688L1314.01 28.9343C1313.96 28.1092 1313.72 27.3071 1313.31 26.5913C1312.9 25.8756 1312.32 25.2659 1311.63 24.8105L1308.49 22.7396C1308.38 22.6629 1308.29 22.5512 1308.24 22.4203C1308.19 22.2895 1308.18 22.1462 1308.21 22.0109C1308.25 21.8756 1308.33 21.7552 1308.44 21.6668C1308.55 21.5785 1308.68 21.5268 1308.82 21.5191L1312.57 21.2949C1313.4 21.2454 1314.2 21.0045 1314.92 20.5913C1315.63 20.1781 1316.24 19.6038 1316.7 18.9141L1318.77 15.7753Z" fill="#000"/>
<path d="M1337.37 48.8979C1338.08 47.7561 1339.83 48.1758 1339.95 49.5157L1340.63 57.38C1340.78 59.109 1341.33 60.7791 1342.24 62.2581C1343.15 63.7371 1344.39 64.9843 1345.86 65.9008L1352.56 70.0695C1353.7 70.7803 1353.28 72.5326 1351.94 72.649L1344.08 73.33C1342.35 73.4804 1340.68 74.0315 1339.2 74.9395C1337.72 75.8475 1336.48 77.0875 1335.56 78.5613L1331.39 85.2602C1331.24 85.5106 1331.01 85.7058 1330.74 85.8181C1330.46 85.9304 1330.16 85.954 1329.88 85.8855C1329.59 85.817 1329.33 85.6599 1329.14 85.4367C1328.95 85.2135 1328.84 84.9355 1328.81 84.6425L1328.13 76.7781C1327.98 75.0496 1327.43 73.3799 1326.52 71.9011C1325.61 70.4223 1324.38 69.1751 1322.9 68.2583L1316.2 64.0886C1315.95 63.9344 1315.75 63.705 1315.64 63.4332C1315.53 63.1614 1315.51 62.8611 1315.57 62.5752C1315.64 62.2892 1315.8 62.0321 1316.02 61.8407C1316.25 61.6493 1316.52 61.5332 1316.82 61.5091L1324.68 60.8281C1326.41 60.678 1328.08 60.1275 1329.56 59.2201C1331.04 58.3128 1332.28 57.0735 1333.2 55.6006L1337.37 48.8979Z" fill="white" stroke="#000" stroke-width="5" stroke-miterlimit="16"/>
<path d="M1361.87 68.1167L1362.99 69.535L1364.76 69.2061L1375.81 67.1667L1369.61 76.4643L1368.6 77.9717L1369.47 79.5639L1374.81 89.3713L1364.04 86.365L1362.3 85.8791L1361.05 87.1908L1353.36 95.3095L1352.9 84.1512L1352.82 82.3399L1351.18 81.564L1341.08 76.7781L1351.6 72.8486L1353.3 72.2167L1353.53 70.4237L1354.96 59.3775L1361.87 68.1167Z" fill="white" stroke="#000" stroke-width="6"/>
<path d="M1401.73 43.0243C1403.33 42.1243 1404.37 40.8105 1404.86 39.0829C1405.34 37.3554 1405.13 35.6906 1404.23 34.0886C1403.33 32.4866 1402.02 31.4432 1400.29 30.9585C1398.57 30.4737 1396.9 30.6814 1395.3 31.5814C1393.7 32.4814 1392.65 33.7951 1392.17 35.5227C1391.68 37.2503 1391.89 38.9151 1392.79 40.5171C1393.69 42.1191 1395.01 43.1624 1396.73 43.6472C1398.46 44.1319 1400.13 43.9243 1401.73 43.0243ZM1473.92 71.5688C1470.71 73.3688 1465.65 74.4552 1458.74 74.828C1451.82 75.2009 1443.99 74.8344 1435.24 73.7286C1434 74.9243 1432.69 76.0354 1431.31 77.0618C1429.93 78.0882 1428.48 79.03 1426.95 79.8871C1418.03 84.9014 1408.74 86.0546 1399.09 83.3468C1389.44 80.6391 1382.11 74.8225 1377.09 65.897C1376.23 64.3713 1375.49 62.7813 1374.86 61.127C1374.23 59.4727 1373.7 57.8137 1373.27 56.15C1365.3 52.4993 1358.45 48.7457 1352.72 44.8889C1346.99 41.0322 1343.22 37.5018 1341.42 34.2978C1340.27 32.2381 1339.93 30.2956 1340.41 28.4703C1340.89 26.645 1342.12 25.1752 1344.1 24.0609C1345.86 23.0752 1348.29 22.3604 1351.4 21.9164C1354.52 21.4724 1358.93 21.2496 1364.65 21.2479C1366.06 21.2582 1367.3 21.7963 1368.35 22.8621C1369.4 23.928 1369.92 25.1664 1369.91 26.5772C1369.9 27.9881 1369.38 29.208 1368.35 30.237C1367.32 31.266 1366.1 31.7753 1364.69 31.7651C1362.77 31.7402 1360.95 31.8083 1359.24 31.9694C1357.52 32.1306 1355.71 32.2964 1353.79 32.467C1356.8 34.5944 1359.85 36.592 1362.96 38.4598C1366.06 40.3275 1369.24 42.1035 1372.5 43.7878C1373.08 38.0398 1374.96 32.7191 1378.13 27.8257C1381.31 22.9323 1385.6 18.9642 1391.02 15.9213C1399.94 10.9071 1409.26 9.76223 1418.97 12.4867C1428.68 15.2112 1436.04 21.0362 1441.06 29.9616C1444.1 35.3779 1445.68 41.0115 1445.81 46.8624C1445.94 52.7132 1444.75 58.2452 1442.26 63.4584C1445.92 63.713 1449.59 63.8591 1453.27 63.8969C1456.96 63.9346 1460.61 63.7876 1464.24 63.4559C1462.82 62.3493 1461.39 61.2916 1459.97 60.2827C1458.55 59.2739 1457.02 58.2804 1455.36 57.3024C1454.15 56.5773 1453.37 55.4889 1453 54.0373C1452.64 52.5858 1452.82 51.2548 1453.54 50.0446C1454.27 48.8343 1455.36 48.0472 1456.81 47.6834C1458.26 47.3195 1459.59 47.5002 1460.8 48.2253C1465.97 51.3454 1469.68 53.8497 1471.95 55.7385C1474.21 57.6272 1475.84 59.4488 1476.82 61.2034C1478.07 63.4157 1478.39 65.4178 1477.79 67.2096C1477.19 69.0015 1475.9 70.4546 1473.92 71.5688ZM1424.74 57.193C1426.04 56.4644 1426.88 55.4151 1427.26 54.0449C1427.65 52.6748 1427.48 51.3413 1426.75 50.0444C1426.02 48.7476 1424.97 47.9069 1423.6 47.5225C1422.23 47.138 1420.9 47.3101 1419.6 48.0387C1418.3 48.7672 1417.46 49.8166 1417.08 51.1867C1416.69 52.5569 1416.86 53.8904 1417.59 55.1872C1418.32 56.4841 1419.37 57.3247 1420.74 57.7092C1422.11 58.0936 1423.44 57.9215 1424.74 57.193ZM1421.46 37.9587C1422.45 37.4015 1423.09 36.6166 1423.38 35.6039C1423.66 34.5912 1423.52 33.589 1422.97 32.5972C1422.41 31.6055 1421.63 30.9676 1420.61 30.6834C1419.6 30.3993 1418.6 30.5358 1417.61 31.0929C1416.61 31.6501 1415.98 32.435 1415.69 33.4477C1415.41 34.4604 1415.54 35.4626 1416.1 36.4543C1416.66 37.4461 1417.44 38.084 1418.46 38.3681C1419.47 38.6523 1420.47 38.5158 1421.46 37.9587ZM1420.49 71.3255C1414.71 70.1546 1409.02 68.7836 1403.42 67.2124C1397.82 65.6413 1392.29 63.8318 1386.82 61.784C1388.61 64.5972 1390.79 66.9601 1393.37 68.8729C1395.95 70.7856 1398.78 72.1766 1401.88 73.0457C1404.98 73.9149 1408.11 74.2145 1411.27 73.9445C1414.43 73.6745 1417.5 72.8015 1420.49 71.3255ZM1430.92 62.3012C1433.51 58.3369 1434.93 53.9001 1435.19 48.9908C1435.44 44.0815 1434.32 39.4146 1431.84 34.99C1428.28 28.6583 1423.03 24.5337 1416.08 22.6162C1409.13 20.6987 1402.49 21.5185 1396.16 25.0757C1391.74 27.5613 1388.37 30.9556 1386.07 35.2585C1383.77 39.5613 1382.7 44.0793 1382.85 48.8124C1390.45 52.1673 1398.31 54.9814 1406.41 57.2546C1414.51 59.5278 1422.68 61.21 1430.92 62.3012Z" fill="#000"/>
<path fill-rule="evenodd" clip-rule="evenodd" d="M1430.92 62.3012C1433.51 58.3369 1434.93 53.9001 1435.19 48.9908C1435.44 44.0815 1434.32 39.4146 1431.84 34.99C1428.28 28.6583 1423.03 24.5337 1416.08 22.6162C1409.13 20.6987 1402.49 21.5185 1396.16 25.0757C1391.74 27.5613 1388.37 30.9556 1386.07 35.2585C1383.77 39.5613 1382.7 44.0793 1382.85 48.8124C1390.45 52.1673 1398.31 54.9814 1406.41 57.2546C1414.51 59.5278 1422.68 61.21 1430.92 62.3012ZM1404.86 39.0829C1404.37 40.8105 1403.33 42.1243 1401.73 43.0243C1400.13 43.9243 1398.46 44.1319 1396.73 43.6472C1395.01 43.1624 1393.69 42.1191 1392.79 40.5171C1391.89 38.9151 1391.68 37.2503 1392.17 35.5227C1392.65 33.7951 1393.7 32.4814 1395.3 31.5814C1396.9 30.6814 1398.57 30.4737 1400.29 30.9585C1402.02 31.4432 1403.33 32.4866 1404.23 34.0886C1405.13 35.6906 1405.34 37.3554 1404.86 39.0829ZM1427.26 54.0449C1426.88 55.4151 1426.04 56.4644 1424.74 57.193C1423.44 57.9215 1422.11 58.0936 1420.74 57.7092C1419.37 57.3247 1418.32 56.4841 1417.59 55.1872C1416.86 53.8904 1416.69 52.5569 1417.08 51.1867C1417.46 49.8166 1418.3 48.7672 1419.6 48.0387C1420.9 47.3101 1422.23 47.138 1423.6 47.5225C1424.97 47.9069 1426.02 48.7476 1426.75 50.0444C1427.48 51.3413 1427.65 52.6748 1427.26 54.0449ZM1423.38 35.6039C1423.09 36.6166 1422.45 37.4015 1421.46 37.9587C1420.47 38.5158 1419.47 38.6523 1418.46 38.3681C1417.44 38.084 1416.66 37.4461 1416.1 36.4543C1415.54 35.4626 1415.41 34.4604 1415.69 33.4477C1415.98 32.435 1416.61 31.6501 1417.61 31.0929C1418.6 30.5358 1419.6 30.3993 1420.61 30.6834C1421.63 30.9676 1422.41 31.6055 1422.97 32.5972C1423.52 33.589 1423.66 34.5912 1423.38 35.6039Z" fill="white"/>
<path d="M1420.49 71.3255C1414.71 70.1546 1409.02 68.7836 1403.42 67.2124C1397.82 65.6413 1392.29 63.8318 1386.82 61.784C1388.61 64.5972 1390.79 66.9601 1393.37 68.8729C1395.95 70.7856 1398.78 72.1766 1401.88 73.0457C1404.98 73.9149 1408.11 74.2145 1411.27 73.9445C1414.43 73.6745 1417.5 72.8015 1420.49 71.3255Z" fill="white"/>
<path d="M1428.11 93.6381L1428.09 95.4455L1429.68 96.3053L1436.57 100.033L1429.14 102.365L1427.41 102.907L1427.09 104.691L1425.69 112.348L1421.16 106.002L1420.11 104.531L1418.32 104.772L1410.59 105.81L1415.23 99.5556L1416.3 98.0987L1415.52 96.4665L1412.13 89.451L1419.56 91.9245L1421.28 92.4957L1422.59 91.2457L1428.19 85.8842L1428.11 93.6381Z" fill="white" stroke="#000" stroke-width="6"/>
<path d="M1467.8 87.4986L1469.02 88.8361L1470.77 88.3852L1481.65 85.5872L1476.1 95.2912L1475.2 96.8645L1476.18 98.393L1482.19 107.808L1471.23 105.553L1469.46 105.189L1468.31 106.583L1461.19 115.215L1459.96 104.115L1459.76 102.313L1458.08 101.652L1447.67 97.576L1457.89 92.9285L1459.54 92.181L1459.65 90.3763L1460.31 79.2577L1467.8 87.4986Z" fill="white" stroke="#000" stroke-width="6"/>
<path d="M1483.4 23.8192L1483.4 23.8199C1484.37 25.2855 1485.67 26.5059 1487.19 27.3837C1488.71 28.2613 1490.41 28.7718 1492.17 28.8764L1492.17 28.8773L1494.19 28.9983L1492.5 30.1145L1492.49 30.1147C1491.03 31.0827 1489.81 32.379 1488.93 33.9004C1488.05 35.4218 1487.54 37.1264 1487.44 38.8798L1487.32 40.8998L1486.2 39.208L1486.2 39.2071L1486.01 38.9352C1485.07 37.5905 1483.84 36.4671 1482.42 35.644C1480.99 34.8209 1479.4 34.3195 1477.77 34.1735L1477.44 34.1492L1475.41 34.0281L1477.11 32.9125C1478.57 31.9451 1479.79 30.6495 1480.67 29.1288C1481.49 27.7029 1481.99 26.1157 1482.14 24.4784L1482.17 24.1503L1482.29 22.1284L1483.4 23.8192Z" fill="white" stroke="#000" stroke-width="5"/>
<path d="M1506.69 53.0074V53.0083C1507.8 56.3377 1509.68 59.3632 1512.16 61.8443C1514.64 64.3252 1517.67 66.1939 1521 67.3023L1530.63 70.5103L1520.99 73.7193L1520.99 73.7202C1517.66 74.8304 1514.63 76.7007 1512.15 79.1831C1509.67 81.6653 1507.8 84.6913 1506.69 88.021L1503.49 97.6499L1500.28 88.0152V88.0142L1500.06 87.3941C1498.93 84.3098 1497.14 81.5053 1494.82 79.1792C1492.34 76.6982 1489.31 74.8296 1485.98 73.7202L1485.98 73.7193L1476.35 70.5103L1485.98 67.3023H1485.98C1489.31 66.1929 1492.34 64.3234 1494.82 61.8423C1497.3 59.3613 1499.17 56.3369 1500.28 53.0083V53.0074L1503.49 43.3716L1506.69 53.0074Z" fill="white" stroke="#000" stroke-width="7"/>
</svg>
